<?xml version="1.0" encoding="UTF-8" standalone="no"?>
<!-- Created with Inkscape (http://www.inkscape.org/) -->

<svg
   xmlns:dc="http://purl.org/dc/elements/1.1/"
   xmlns:cc="http://creativecommons.org/ns#"
   xmlns:rdf="http://www.w3.org/1999/02/22-rdf-syntax-ns#"
   xmlns:svg="http://www.w3.org/2000/svg"
   xmlns="http://www.w3.org/2000/svg"
   xmlns:sodipodi="http://sodipodi.sourceforge.net/DTD/sodipodi-0.dtd"
   xmlns:inkscape="http://www.inkscape.org/namespaces/inkscape"
   width="420mm"
   height="297mm"
   viewBox="0 0 41.999997 29.7"
   version="1.1"
   id="svg8"
   inkscape:version="0.92.3 (2405546, 2018-03-11)"
   sodipodi:docname="agenda_sunday_wob.svg">
  <defs
     id="defs2" />
  <sodipodi:namedview
     id="base"
     pagecolor="#ffffff"
     bordercolor="#666666"
     borderopacity="1.0"
     inkscape:pageopacity="0"
     inkscape:pageshadow="2"
     inkscape:zoom="0.50000001"
     inkscape:cx="998.6666"
     inkscape:cy="378.2042"
     inkscape:document-units="cm"
     inkscape:current-layer="g26"
     showgrid="true"
     scale-x="1"
     showguides="true"
     borderlayer="false"
     showborder="true"
     inkscape:showpageshadow="true"
     inkscape:window-width="1920"
     inkscape:window-height="986"
     inkscape:window-x="-11"
     inkscape:window-y="-11"
     inkscape:window-maximized="1"
     units="mm" />
  <metadata
     id="metadata5">
    <rdf:RDF>
      <cc:Work
         rdf:about="">
        <dc:format>image/svg+xml</dc:format>
        <dc:type
           rdf:resource="http://purl.org/dc/dcmitype/StillImage" />
        <dc:title></dc:title>
      </cc:Work>
    </rdf:RDF>
  </metadata>
  <g
     inkscape:label="Ebene 1"
     inkscape:groupmode="layer"
     id="layer1"
     transform="translate(0,-260.28)">
    <g
       id="g26"
       transform="matrix(2.0178592,0,0,2.0178592,-4.1750468,-365.18553)">
      <rect
         style="opacity:1;vector-effect:none;fill:#000000;fill-opacity:1;stroke:none;stroke-width:0.07056672;stroke-linecap:butt;stroke-linejoin:miter;stroke-miterlimit:4;stroke-dasharray:none;stroke-dashoffset:0;stroke-opacity:0.27096779"
         id="rect853"
         width="20.814138"
         height="14.718569"
         x="2.0690477"
         y="309.9649" />
      <flowRoot
         xml:space="preserve"
         id="flowRoot1291"
         style="font-style:normal;font-weight:normal;font-size:40px;line-height:1.25;font-family:sans-serif;letter-spacing:0px;word-spacing:0px;fill:#000000;fill-opacity:1;stroke:none"><flowRegion
           id="flowRegion1293"><rect
             id="rect1295"
             width="300"
             height="314"
             x="110"
             y="516.51971" /></flowRegion><flowPara
           id="flowPara1297" /></flowRoot>      <flowRoot
         xml:space="preserve"
         id="flowRoot1299"
         style="font-style:normal;font-weight:normal;font-size:40px;line-height:1.25;font-family:sans-serif;letter-spacing:0px;word-spacing:0px;fill:#000000;fill-opacity:1;stroke:none"><flowRegion
           id="flowRegion1301"><rect
             id="rect1303"
             width="302"
             height="330"
             x="108"
             y="504.51971" /></flowRegion><flowPara
           id="flowPara1305" /></flowRoot>      <path
         style="opacity:0.223;fill:#ffffff;fill-opacity:1;stroke:none;stroke-width:0.01218135;stroke-miterlimit:4;stroke-dasharray:0.01218135, 0.07308811000000000;stroke-dashoffset:0;stroke-opacity:1"
         d="m 16.516505,323.24959 c -0.318929,-0.1602 -0.584362,-0.29314 -0.589852,-0.29541 -0.0095,-0.004 0.04188,-0.12413 0.08634,-0.2021 0.0196,-0.0344 0.02236,-0.0351 0.05692,-0.0149 0.03163,0.0185 0.03737,0.0183 0.04481,-0.002 0.0082,-0.0229 0.0021,-0.0259 -0.182049,-0.0921 -0.104796,-0.0376 -0.189596,-0.071 -0.18845,-0.0743 0.0011,-0.002 0.25906,-0.31265 0.57314,-0.68767 0.314078,-0.37503 0.572851,-0.68688 0.575048,-0.69301 0.0021,-0.006 -0.0142,-0.0176 -0.03641,-0.0256 -0.04672,-0.0168 -0.04859,-0.007 0.03101,-0.16489 l 0.05563,-0.11041 0.04445,0.0204 c 0.02444,0.0112 0.295282,0.14516 0.601796,0.29778 0.30651,0.15265 0.563463,0.27975 0.571008,0.28247 0.01053,0.004 3.85e-4,0.0312 -0.04359,0.11799 -0.03152,0.0621 -0.06045,0.12101 -0.06429,0.13075 -0.0052,0.0134 -0.01627,0.0132 -0.04461,-5.9e-4 -0.04639,-0.0231 -0.04078,-0.0303 -0.150679,0.19421 l -0.0855,0.17464 -0.04419,-0.0159 c -0.04112,-0.0149 -0.04497,-0.0137 -0.0563,0.0178 -0.02137,0.0594 -0.03572,0.068 -0.07535,0.0448 -0.03417,-0.0201 -0.03643,-0.0194 -0.05328,0.0163 -0.01619,0.0344 -0.02117,0.0365 -0.06219,0.0254 -0.03897,-0.0105 -0.04593,-0.008 -0.05525,0.0177 -0.0059,0.0163 -0.009,0.23706 -0.0068,0.49057 0.0021,0.25352 0.0027,0.46421 0.0013,0.46819 -0.0013,0.004 -0.03628,-0.005 -0.07745,-0.0197 -0.08356,-0.03 -0.0756,-0.0346 -0.131893,0.075 -0.03011,0.0586 -0.02573,0.0764 0.02332,0.0944 0.02433,0.009 0.02516,0.0135 0.0072,0.0451 -0.01104,0.0194 -0.03708,0.0716 -0.05791,0.11611 -0.03423,0.0732 -0.04016,0.08 -0.06192,0.0709 -0.01332,-0.005 -0.285005,-0.14108 -0.603934,-0.30128 z m 0.532986,0.11336 c 0.0079,-0.0218 0.0095,-0.0415 0.0036,-0.0436 -0.0059,-0.002 -0.197635,-0.0975 -0.426134,-0.21184 -0.228496,-0.11441 -0.43029,-0.21332 -0.448424,-0.21983 -0.02776,-0.01 -0.0362,-0.007 -0.05339,0.0222 -0.01123,0.0186 -0.01951,0.0357 -0.01841,0.038 0.0039,0.009 0.908116,0.45784 0.918162,0.45638 0.0057,-5.8e-4 0.01673,-0.0194 0.02459,-0.0412 z m 0.06918,-0.14063 c 0.0081,-0.0132 0.04012,-0.0765 0.07116,-0.14067 0.03103,-0.0641 0.06425,-0.12996 0.07382,-0.14625 0.01636,-0.0278 0.01491,-0.0305 -0.02392,-0.0444 -0.04053,-0.0147 -0.04103,-0.0158 -0.02473,-0.0612 0.01569,-0.0437 0.01469,-0.0468 -0.01803,-0.0586 -0.03272,-0.0118 -0.0337,-0.015 -0.01805,-0.0586 0.01595,-0.0443 0.01511,-0.0468 -0.02086,-0.0598 -0.05222,-0.019 -0.06408,-0.0389 -0.04551,-0.0762 0.01382,-0.0278 0.01176,-0.034 -0.01665,-0.0502 -0.0285,-0.0161 -0.03103,-0.024 -0.02053,-0.063 0.01068,-0.0399 0.0086,-0.0459 -0.02006,-0.056 -0.01761,-0.006 -0.03364,-0.015 -0.03567,-0.0194 -0.0021,-0.004 0.02216,-0.0586 0.05369,-0.12087 0.03154,-0.0621 0.06014,-0.12011 0.06355,-0.12864 0.0046,-0.0114 0.01587,-0.01 0.04334,0.006 0.03577,0.0211 0.03795,0.0204 0.05946,-0.0162 0.02023,-0.0346 0.02594,-0.0368 0.06054,-0.0243 0.03327,0.0119 0.04087,0.01 0.05873,-0.0189 0.0197,-0.0314 0.02261,-0.0317 0.07307,-0.01 l 0.0525,0.0229 0.02433,-0.0496 0.02433,-0.0496 0.04189,0.0195 c 0.04143,0.0194 0.04205,0.019 0.05713,-0.0229 0.01501,-0.0418 0.01565,-0.042 0.05712,-0.023 l 0.04189,0.0195 0.0779,-0.1536 c 0.04284,-0.0845 0.07661,-0.15632 0.07504,-0.15966 -0.008,-0.0169 -0.907418,-0.45589 -0.91762,-0.44784 -0.0062,0.005 -0.04166,0.0722 -0.07872,0.14964 -0.03705,0.0774 -0.06864,0.14278 -0.0702,0.14536 -0.0014,0.002 0.01249,0.015 0.03122,0.0279 0.03017,0.0205 0.0324,0.0278 0.01963,0.0632 -0.01143,0.0318 -0.0099,0.0417 0.0078,0.0482 0.04513,0.0162 0.04993,0.0295 0.02763,0.077 -0.02469,0.0524 -0.01678,0.0698 0.04122,0.091 0.0373,0.0136 0.03786,0.015 0.01901,0.0559 -0.01843,0.0399 -0.01763,0.0427 0.01623,0.0587 0.03229,0.015 0.03447,0.021 0.02382,0.0607 -0.0105,0.0393 -0.0082,0.0457 0.02215,0.0601 l 0.03391,0.0161 -0.05687,0.11259 c -0.03128,0.0619 -0.05928,0.1187 -0.06224,0.12617 -0.003,0.008 -0.02545,0.008 -0.04996,5.8e-4 -0.04052,-0.0112 -0.04611,-0.009 -0.06152,0.0239 -0.01583,0.0335 -0.01906,0.0346 -0.04951,0.0161 -0.03614,-0.0218 -0.05809,-0.0124 -0.0743,0.0317 -0.009,0.0244 -0.01397,0.0246 -0.06332,0.002 -0.05323,-0.0231 -0.05377,-0.0228 -0.07106,0.0138 -0.01668,0.0354 -0.01932,0.0361 -0.05864,0.0181 -0.03916,-0.0181 -0.04207,-0.0172 -0.05829,0.0173 -0.01595,0.0338 -0.02,0.0352 -0.06036,0.0206 l -0.04325,-0.0156 -0.08279,0.16745 c -0.04553,0.0921 -0.08182,0.16953 -0.08062,0.17205 0.0012,0.002 0.0385,0.0218 0.08291,0.0429 l 0.08076,0.0384 0.01551,-0.0431 c 0.01244,-0.0346 0.01863,-0.0405 0.03126,-0.0296 0.0087,0.008 0.03091,0.019 0.04944,0.0257 0.03161,0.0112 0.0326,0.0152 0.01709,0.0583 -0.01621,0.0451 -0.01564,0.0465 0.02382,0.0607 0.02454,0.009 0.04252,0.009 0.04577,1.3e-4 0.003,-0.008 0.01247,-0.0246 0.02119,-0.0372 0.01361,-0.0197 0.01038,-0.026 -0.02292,-0.0455 -0.03366,-0.0198 -0.03723,-0.0269 -0.02703,-0.0553 0.01416,-0.0394 0.02406,-0.0426 0.06258,-0.0197 0.02502,0.0149 0.02745,0.0231 0.01591,0.0553 -0.01376,0.0383 -0.0036,0.0573 0.03876,0.0725 0.01477,0.005 0.02744,-0.004 0.04336,-0.0308 0.01986,-0.0338 0.02598,-0.0366 0.0523,-0.0237 0.02449,0.0122 0.0281,0.0215 0.02015,0.0528 -0.0092,0.0361 -0.01184,0.0374 -0.05494,0.0259 -0.04124,-0.0109 -0.04679,-0.009 -0.06194,0.023 -0.01494,0.0316 -0.01312,0.0374 0.01719,0.0565 0.03738,0.0235 0.05821,0.0155 0.07447,-0.0289 0.0065,-0.0178 0.01644,-0.0235 0.03166,-0.0179 0.04578,0.0164 0.05304,0.0322 0.03227,0.0696 -0.01911,0.0345 -0.01832,0.0367 0.0204,0.056 0.048,0.0238 0.05148,0.023 0.06704,-0.0203 0.01154,-0.0322 0.01379,-0.0327 0.05979,-0.0122 0.04623,0.0205 0.04742,0.0227 0.03603,0.065 -0.01272,0.0474 -0.0072,0.0527 0.10108,0.097 0.03549,0.0147 0.04474,0.0136 0.05717,-0.007 z m -0.308576,-0.22181 c -0.0013,-0.006 0.0056,-0.024 0.01517,-0.0402 0.01507,-0.0255 0.02296,-0.0275 0.05786,-0.0149 0.03628,0.013 0.03876,0.0169 0.02413,0.0379 -0.009,0.0129 -0.01871,0.03 -0.02165,0.0378 -0.0057,0.0155 -0.07169,-0.002 -0.07553,-0.0206 z m -0.03663,-0.11988 c -0.0014,-0.007 0.008,-0.0329 0.02125,-0.057 0.02316,-0.0421 0.02531,-0.043 0.05773,-0.0238 0.01846,0.0112 0.03394,0.0206 0.03426,0.0215 2.53e-4,5.8e-4 -0.0097,0.0229 -0.02218,0.0487 -0.02087,0.0434 -0.02549,0.0462 -0.05552,0.0355 -0.01801,-0.007 -0.03401,-0.0177 -0.03555,-0.025 z m -0.151361,-0.10627 c 0.0198,-0.0551 0.03611,-0.0664 0.07563,-0.0521 0.03603,0.0129 0.03618,0.0135 0.01357,0.0635 -0.02219,0.0491 -0.02385,0.0501 -0.06207,0.0365 -0.03568,-0.0128 -0.03816,-0.0172 -0.02714,-0.0478 z m 0.182984,-0.10098 c -0.01834,-0.0111 -0.02134,-0.0222 -0.01228,-0.0475 0.01434,-0.0399 0.02415,-0.043 0.06275,-0.0203 0.02525,0.015 0.02749,0.0231 0.01547,0.0564 -0.01424,0.0397 -0.01724,0.0402 -0.06596,0.0112 z m 0.337039,-0.64963 c -0.0341,-0.0161 -0.03564,-0.02 -0.02012,-0.0528 0.01212,-0.0256 0.02345,-0.034 0.04092,-0.0303 0.03762,0.008 0.04916,0.0331 0.03184,0.0684 -0.01429,0.0291 -0.01924,0.0304 -0.05265,0.0147 z m 0.105002,-0.10677 0.02703,-0.0541 -0.03706,-0.0218 c -0.0323,-0.0189 -0.03549,-0.0261 -0.02478,-0.0559 0.0112,-0.0312 0.01567,-0.0329 0.052,-0.0198 0.03757,0.0135 0.03913,0.0166 0.02774,0.0589 -0.01084,0.0403 -0.0087,0.0462 0.02289,0.0611 0.03225,0.0149 0.03664,0.0134 0.05794,-0.0229 0.01988,-0.0339 0.02625,-0.0372 0.04589,-0.0235 0.01247,0.009 0.02668,0.0174 0.0314,0.0192 0.0047,0.002 0.0024,0.0206 -0.0053,0.0421 -0.01346,0.0374 -0.01552,0.0383 -0.05679,0.022 -0.04246,-0.0167 -0.04303,-0.0164 -0.06402,0.031 -0.02068,0.0467 -0.02215,0.0476 -0.06255,0.0329 l -0.04135,-0.0149 z m -0.146787,-0.0126 c -0.02913,-0.0144 -0.02976,-0.0182 -0.01019,-0.0623 0.0195,-0.044 0.02335,-0.0463 0.05968,-0.0371 0.03769,0.01 0.03831,0.0113 0.02283,0.0539 -0.02041,0.056 -0.03391,0.0647 -0.07231,0.0457 z m -0.04391,-0.19331 c 0.01417,-0.0395 0.01645,-0.0405 0.05594,-0.0263 0.03947,0.0141 0.04037,0.0165 0.02404,0.051 -0.01505,0.0318 -0.02179,0.035 -0.05593,0.0263 -0.03725,-0.01 -0.03816,-0.0117 -0.02404,-0.051 z m -0.202425,0.40235 c 0.02618,-0.0516 0.04704,-0.0983 0.04637,-0.10395 -6.44e-4,-0.006 -0.01543,-0.0153 -0.0328,-0.0216 -0.02937,-0.0105 -0.03618,-0.006 -0.09731,0.0734 -0.03615,0.0466 -0.06806,0.0913 -0.0709,0.0991 -0.0036,0.01 0.01211,0.0194 0.05095,0.0305 l 0.0561,0.0162 z m 1.102627,-0.57106 c 0.01135,-0.0188 0.018,-0.0394 0.01484,-0.0458 -0.0081,-0.0162 -0.881196,-0.44987 -0.904936,-0.44937 -0.01963,4.4e-4 -0.05209,0.067 -0.03612,0.0742 0.0046,0.002 0.204679,0.1026 0.444537,0.22341 0.23986,0.12081 0.441739,0.22235 0.448611,0.22567 0.0068,0.002 0.02178,-0.009 0.0331,-0.028 z m 0.139342,1.88388 c -0.0381,-0.0237 -0.108118,-0.0833 -0.155582,-0.13264 -0.148475,-0.1541 -0.218705,-0.36343 -0.201822,-0.60147 0.0082,-0.11702 0.129532,-0.45645 0.198123,-0.55469 0.166954,-0.23913 0.4214,-0.35993 0.711248,-0.33764 0.117332,0.009 0.351861,0.086 0.461559,0.15149 0.204116,0.12186 0.352761,0.33371 0.380713,0.54256 0.01211,0.0906 0.0088,0.25112 -0.0053,0.25748 -0.01216,0.006 -0.450843,-0.0865 -0.463157,-0.0972 -0.0068,-0.006 -0.01019,-0.0357 -0.0076,-0.0663 0.01187,-0.1416 -0.08239,-0.28195 -0.223447,-0.33265 -0.138717,-0.0499 -0.278739,-0.0106 -0.378607,0.10596 -0.06812,0.0795 -0.122479,0.19236 -0.145899,0.3028 -0.03683,0.17371 -0.01542,0.29733 0.06796,0.39207 0.04415,0.0502 0.06175,0.0613 0.142739,0.0905 0.0809,0.0292 0.101664,0.0316 0.166859,0.0212 0.08504,-0.0138 0.175104,-0.0666 0.219591,-0.12867 0.01676,-0.0235 0.03563,-0.0454 0.04193,-0.0491 0.0063,-0.004 0.105712,0.0436 0.220883,0.10492 0.238171,0.12675 0.227777,0.11114 0.144384,0.21676 -0.126516,0.16024 -0.299184,0.25472 -0.504939,0.2763 -0.07162,0.008 -0.167387,0.007 -0.221603,-5.8e-4 -0.118027,-0.0173 -0.352228,-0.10137 -0.447995,-0.16091 z m -3.795478,-2.28272 0.28637,-0.79679 0.230953,0.083 0.230952,0.083 -0.107907,0.30024 -0.107909,0.30024 0.277143,0.0996 0.277143,0.0996 0.107909,-0.30024 0.107907,-0.30023 0.230953,0.083 0.230953,0.083 -0.286371,0.79677 -0.286369,0.79679 -0.230953,-0.083 -0.230952,-0.083 0.107907,-0.30025 0.107908,-0.30023 -0.277143,-0.0996 -0.277144,-0.0996 -0.107908,0.30024 -0.107906,0.30023 -0.230951,-0.083 -0.230954,-0.083 z m 5.450479,1.95893 0.286371,-0.79678 0.07506,0.0269 c 0.0663,0.0239 0.076,0.0243 0.08301,0.005 0.01571,-0.0438 0.0079,-0.0635 -0.0308,-0.0774 -0.03325,-0.012 -0.03693,-0.0181 -0.0305,-0.0501 0.0041,-0.0201 0.0079,-0.0367 0.0086,-0.0371 6.45e-4,-2.6e-4 0.326523,0.0738 0.724093,0.16489 l 0.722861,0.16554 0.014,-0.0431 c 0.01301,-0.0401 0.01636,-0.0421 0.04743,-0.0311 0.01839,0.007 0.03872,0.006 0.04516,-5.8e-4 0.0064,-0.008 0.11216,-0.44917 0.23492,-0.98153 0.122759,-0.53237 0.226619,-0.97734 0.230798,-0.98884 0.006,-0.0167 0.01501,-0.0175 0.04383,-0.004 0.03199,0.0149 0.03504,0.0218 0.02626,0.0563 -0.0097,0.0377 -0.0084,0.0395 0.03237,0.046 0.02322,0.004 0.04205,0.009 0.04162,0.0115 -3.05e-4,0.002 -0.01527,0.0726 -0.03317,0.15578 l -0.03255,0.1513 0.04651,0.0206 0.04651,0.0206 -0.16474,0.47799 c -0.11457,0.33248 -0.172721,0.51678 -0.190974,0.60545 -0.01445,0.0701 -0.02634,0.12892 -0.02646,0.13067 -1.91e-4,0.002 0.16081,0.0612 0.357697,0.13201 l 0.357976,0.12865 -0.07055,0.19632 -0.07057,0.19631 -0.334879,-0.12036 c -0.215556,-0.0775 -0.336292,-0.11642 -0.339038,-0.10878 -0.0023,0.006 -0.02274,0.005 -0.04547,-0.002 -0.04073,-0.0147 -0.04143,-0.0143 -0.05309,0.0299 -0.01135,0.043 -0.01335,0.0442 -0.05204,0.0344 l -0.04033,-0.01 -0.01498,0.0589 c -0.01082,0.0425 -0.01906,0.0575 -0.02966,0.0536 -0.02199,-0.008 -1.127493,-0.26233 -1.149347,-0.26453 -0.0103,-5.9e-4 -0.0075,0.002 0.0064,0.009 l 0.02531,0.0105 -0.09717,0.28008 -0.09717,0.2801 0.330911,-0.19608 0.330913,-0.19609 0.282127,0.10141 c 0.267627,0.0962 0.280917,0.10194 0.25745,0.11534 -0.01358,0.008 -0.18448,0.1032 -0.379795,0.2123 -0.195318,0.10909 -0.359737,0.20364 -0.365379,0.21013 -0.0056,0.007 0.04154,0.26898 0.104845,0.58337 0.06331,0.31439 0.11432,0.57377 0.113365,0.57643 -9.62e-4,0.002 -0.124178,-0.0408 -0.27379,-0.0964 l -0.272064,-0.10122 -0.06355,-0.3521 c -0.03495,-0.19363 -0.06685,-0.35326 -0.07087,-0.35472 -0.0041,-5.8e-4 -0.05613,0.0249 -0.11579,0.0584 l -0.108473,0.0612 -0.07395,0.20574 -0.07395,0.20578 -0.230958,-0.083 -0.230952,-0.083 z m 0.313646,-0.9815 c 0.01695,-0.0472 0.0091,-0.064 -0.03295,-0.0707 -0.03355,-0.005 -0.03959,-0.0107 -0.03763,-0.0328 0.0024,-0.0261 -0.0012,-0.0277 -0.449075,-0.18859 l -0.451439,-0.16227 0.284296,-0.791 0.284293,-0.79102 0.635119,0.22827 0.63512,0.22825 -0.0705,0.19618 -0.0705,0.19615 -0.408151,-0.14323 -0.408152,-0.14325 -0.0332,0.0923 -0.0332,0.0923 0.378818,0.1396 c 0.312544,0.11528 0.380004,0.14328 0.385577,0.1607 0.0053,0.0166 0.02278,0.0248 0.08186,0.0383 0.04131,0.01 0.07989,0.0149 0.08573,0.0121 0.0058,-0.002 0.05755,-0.20824 0.11489,-0.45662 l 0.104274,-0.45161 0.03782,0.0136 c 0.02989,0.0107 0.037,0.0195 0.03396,0.0416 -0.0036,0.0255 -0.193142,0.84877 -0.199408,0.86571 -0.0014,0.004 -0.02268,0.004 -0.0471,2.2e-4 -0.0426,-0.007 -0.04463,-0.006 -0.05102,0.0343 l -0.0067,0.0414 -0.06369,-0.0143 c -0.03495,-0.008 -0.136971,-0.0309 -0.226524,-0.0512 l -0.162842,-0.0366 -0.01626,0.056 c -0.01425,0.0491 -0.01906,0.0551 -0.03898,0.0479 -0.04533,-0.0162 -0.06195,-0.009 -0.07066,0.0311 -0.0046,0.0211 -0.04216,0.1817 -0.08348,0.3569 -0.102065,0.43273 -0.09741,0.39528 -0.05112,0.41192 0.03177,0.0114 0.03807,0.0196 0.03545,0.0459 -0.0043,0.0429 -0.01807,0.0515 -0.05869,0.037 -0.02577,-0.009 -0.03205,-0.0175 -0.02601,-0.0342 z m 0.05412,-0.63674 c 0.01446,-0.0539 0.02367,-0.10358 0.02049,-0.11033 -0.0032,-0.007 -0.08906,-0.0405 -0.190815,-0.0752 l -0.18498,-0.0631 -0.03419,0.0843 c -0.01878,0.0464 -0.03398,0.0922 -0.03378,0.10194 2.88e-4,0.0139 0.04333,0.0331 0.198702,0.089 l 0.198332,0.0712 z m -2.309246,-0.25398 c -0.102494,-0.0533 -0.228191,-0.13967 -0.301945,-0.20733 -0.07837,-0.0718 -0.184519,-0.19873 -0.179052,-0.21395 0.0046,-0.013 0.33936,-0.26762 0.347786,-0.2646 0.0029,5.9e-4 0.02626,0.03 0.05204,0.0644 0.148649,0.19825 0.450082,0.36923 0.612791,0.34761 0.08707,-0.0116 0.100298,-0.0823 0.02961,-0.1584 -0.0149,-0.016 -0.119192,-0.0877 -0.231824,-0.15934 -0.242375,-0.15412 -0.330486,-0.23422 -0.392464,-0.35676 -0.02388,-0.0472 -0.04561,-0.11592 -0.05039,-0.15924 -0.0076,-0.0689 -0.0041,-0.0882 0.03727,-0.2032 0.04169,-0.11599 0.05058,-0.13183 0.102404,-0.18222 0.190437,-0.18523 0.532525,-0.19617 0.892318,-0.0285 0.07175,0.0334 0.175588,0.0912 0.230763,0.12841 0.103951,0.0702 0.278429,0.23231 0.271288,0.25217 -0.0023,0.006 -0.03745,0.0411 -0.07823,0.0776 -0.04079,0.0365 -0.110023,0.0983 -0.153857,0.13732 l -0.0797,0.0712 -0.06463,-0.0669 c -0.184331,-0.19086 -0.472156,-0.33119 -0.58988,-0.28763 -0.102776,0.038 -0.0704,0.11907 0.08741,0.21876 0.287201,0.18144 0.372517,0.24201 0.445026,0.31599 0.08227,0.084 0.135893,0.17998 0.146356,0.2621 0.01647,0.12936 -0.05273,0.31363 -0.158436,0.42182 -0.104265,0.10671 -0.287094,0.16053 -0.486422,0.14316 -0.112771,-0.01 -0.366597,-0.089 -0.488241,-0.15236 z m -3.812602,-2.2895 0.284578,-0.79179 0.486316,0.17971 c 0.430425,0.15915 0.492769,0.1847 0.542349,0.22337 0.09185,0.0716 0.141708,0.13194 0.171689,0.20772 0.03889,0.0982 0.03249,0.17986 -0.02511,0.32051 -0.04749,0.11592 -0.08345,0.16042 -0.170588,0.21104 l -0.04218,0.0246 0.04329,0.0918 c 0.059,0.1252 0.05715,0.18612 -0.01085,0.35673 -0.04309,0.10811 -0.05902,0.13577 -0.104959,0.18226 -0.107277,0.10858 -0.270916,0.15258 -0.462023,0.12421 -0.07624,-0.0113 -0.185982,-0.0466 -0.546251,-0.17623 l -0.450846,-0.16203 z m 0.75538,0.6802 c 0.05152,-0.0243 0.07821,-0.0844 0.0586,-0.13196 -0.02091,-0.0507 -0.07637,-0.0819 -0.250061,-0.14003 l -0.162922,-0.0546 -0.03625,0.0902 c -0.01994,0.0496 -0.03607,0.0984 -0.03584,0.1086 3.31e-4,0.015 0.03565,0.0304 0.192079,0.0833 0.190947,0.0647 0.191892,0.0646 0.23439,0.0446 z m 0.164769,-0.60686 c 0.05116,-0.0292 0.06964,-0.0801 0.04664,-0.12893 -0.023,-0.0488 -0.06183,-0.0703 -0.224228,-0.12391 l -0.134052,-0.0442 -0.03417,0.0843 c -0.0188,0.0465 -0.034,0.0926 -0.03377,0.10293 3.31e-4,0.0152 0.03189,0.0291 0.17025,0.0754 0.169771,0.0566 0.16994,0.0566 0.209333,0.0344 z m 0.439123,1.26015 c 0.0018,-0.005 0.122285,-0.15078 0.267858,-0.32425 0.145571,-0.17346 0.284048,-0.33923 0.307724,-0.36837 l 0.04305,-0.053 -0.03402,-0.0122 c -0.03011,-0.0109 -0.03543,-0.008 -0.04647,0.0224 -0.01198,0.0333 -0.01438,0.034 -0.06443,0.016 -0.05004,-0.0181 -0.05149,-0.02 -0.0395,-0.0533 0.01199,-0.0333 0.01438,-0.0339 0.06443,-0.016 l 0.05196,0.0186 0.02283,-0.0635 0.02283,-0.0635 0.04618,0.0166 c 0.03999,0.0144 0.04504,0.0201 0.03759,0.0429 -0.0082,0.025 0.133461,-0.1268 0.145767,-0.15623 0.0032,-0.008 -0.007,-0.0188 -0.02295,-0.0246 -0.02783,-0.0101 -0.02793,-0.013 -0.0018,-0.0854 l 0.02696,-0.0751 -0.03464,-0.0123 -0.03464,-0.0124 0.04773,-0.13281 0.04773,-0.1328 0.03464,0.0124 0.03464,0.0124 0.03111,-0.0866 0.03112,-0.0866 0.04041,0.0144 c 0.03849,0.0138 0.04104,0.0129 0.05494,-0.0259 0.01417,-0.0395 0.01562,-0.04 0.06072,-0.0239 l 0.04619,0.0167 0.02283,-0.0635 0.02283,-0.0635 0.04041,0.0145 c 0.03721,0.0134 0.04135,0.0119 0.05287,-0.0201 l 0.01246,-0.0348 0.09815,0.0353 0.09815,0.0353 0.01453,-0.0404 0.01453,-0.0404 0.121251,0.0436 0.12125,0.0435 -0.01453,0.0404 -0.01453,0.0404 0.09815,0.0353 0.09815,0.0353 -0.01246,0.0348 c -0.01147,0.0319 -0.0093,0.0358 0.02796,0.0491 l 0.04042,0.0145 -0.02283,0.0635 c -0.0226,0.0629 -0.02247,0.0637 0.01181,0.0759 0.03189,0.0114 0.03355,0.0155 0.02012,0.0529 -0.01444,0.0402 -0.01426,0.0405 0.03744,0.0591 l 0.05196,0.0186 -0.03112,0.0866 -0.03111,0.0866 0.03464,0.0124 0.03464,0.0123 -0.04773,0.1328 -0.04773,0.1328 -0.03464,-0.0124 -0.03465,-0.0124 -0.02699,0.0751 -0.02699,0.0751 -0.05196,-0.0186 -0.05196,-0.0186 -0.03112,0.0866 -0.03112,0.0866 -0.03464,-0.0124 c -0.02839,-0.0102 -0.03636,-0.008 -0.04412,0.0139 -0.007,0.0194 -0.0065,0.86885 6.44e-4,1.06901 7.39e-4,0.0216 -0.01482,0.0174 -0.230698,-0.0602 l -0.231522,-0.0833 -0.01497,-0.0869 c -0.0082,-0.0478 -0.01832,-0.0778 -0.02241,-0.0667 -0.0056,0.0153 -0.01713,0.0167 -0.04786,0.006 -0.03721,-0.0134 -0.04135,-0.0119 -0.05287,0.0201 l -0.01246,0.0347 -0.12125,-0.0436 -0.12125,-0.0436 0.01246,-0.0347 c 0.01198,-0.0333 0.01053,-0.0354 -0.0395,-0.0533 l -0.05196,-0.0186 0.01868,-0.052 0.01868,-0.0519 0.214182,0.077 0.214182,0.077 0.0225,-0.0734 0.0225,-0.0734 -0.209645,-0.0788 -0.209645,-0.0788 -0.01649,0.0458 -0.01649,0.0458 -0.06747,-0.0204 -0.06747,-0.0203 -0.08727,0.11529 -0.08728,0.11528 -0.2454,-0.0882 c -0.134971,-0.0484 -0.243975,-0.092 -0.242218,-0.097 z m 1.314078,-0.13707 0.02698,-0.0751 -0.202086,-0.0726 -0.202084,-0.0727 -0.02697,0.0751 -0.02699,0.0751 0.202082,0.0726 0.202084,0.0727 z m -0.05989,-0.59526 0.09338,-0.25982 -0.06352,-0.0228 c -0.06287,-0.0226 -0.06338,-0.0231 -0.05105,-0.0575 l 0.01246,-0.0348 0.161666,0.0581 0.161667,0.0581 -0.01246,0.0346 c -0.01217,0.034 -0.01373,0.0342 -0.0702,0.0139 l -0.05773,-0.0206 -0.09338,0.25983 -0.09338,0.25983 0.08661,0.0311 0.0866,0.0312 0.01246,-0.0346 c 0.01217,-0.034 0.01373,-0.0342 0.0702,-0.0139 l 0.05774,0.0206 0.02283,-0.0636 0.02283,-0.0635 0.04041,0.0144 0.04041,0.0144 0.03112,-0.0866 0.03112,-0.0866 0.03464,0.0124 0.03464,0.0124 0.02697,-0.0751 0.02698,-0.0751 0.05196,0.0186 0.05196,0.0186 0.04773,-0.1328 0.04773,-0.1328 -0.05196,-0.0186 -0.05196,-0.0186 0.03111,-0.0866 0.03112,-0.0866 -0.03464,-0.0124 c -0.03189,-0.0114 -0.03354,-0.0155 -0.02012,-0.0529 0.01383,-0.0385 0.01261,-0.0411 -0.0259,-0.0548 l -0.04041,-0.0144 0.02283,-0.0635 0.02283,-0.0635 -0.09815,-0.0353 -0.09815,-0.0353 0.01246,-0.0346 0.01246,-0.0348 -0.12125,-0.0435 -0.12125,-0.0436 -0.01246,0.0348 -0.01246,0.0348 -0.09815,-0.0353 -0.09815,-0.0353 -0.02283,0.0635 -0.02283,0.0635 -0.04041,-0.0144 c -0.03849,-0.0137 -0.04105,-0.0129 -0.05494,0.0259 -0.01417,0.0394 -0.01562,0.04 -0.06072,0.0239 l -0.04619,-0.0166 -0.03112,0.0866 -0.03111,0.0866 -0.04041,-0.0144 -0.04041,-0.0145 -0.04773,0.1328 -0.04773,0.1328 0.04135,0.0149 0.04135,0.0149 -0.03185,0.0765 -0.03185,0.0765 0.05048,0.0137 0.05048,0.0137 -0.03154,0.0878 -0.03154,0.0878 0.03981,0.0143 0.03981,0.0143 -0.0183,0.0619 -0.0183,0.0619 0.04205,0.019 c 0.03831,0.0173 0.04092,0.0222 0.02981,0.053 l -0.0122,0.034 0.0866,0.0312 0.0866,0.0311 z M 16.47144,318.84 c 0.01858,-0.0516 0.01889,-0.0519 0.05909,-0.0374 0.03721,0.0133 0.04135,0.0119 0.05287,-0.0201 0.01177,-0.0328 0.01502,-0.0337 0.05865,-0.0181 0.04509,0.0162 0.0465,0.0157 0.06071,-0.0238 0.01445,-0.0402 0.0148,-0.0403 0.06649,-0.0217 0.05169,0.0186 0.05189,0.0189 0.03744,0.0591 -0.01444,0.0402 -0.0148,0.0402 -0.06649,0.0218 -0.05004,-0.0181 -0.05244,-0.0174 -0.06443,0.016 -0.01177,0.0328 -0.01502,0.0337 -0.05864,0.018 l -0.04619,-0.0166 -0.01868,0.052 c -0.01858,0.0517 -0.01889,0.0518 -0.0591,0.0374 -0.04021,-0.0144 -0.04032,-0.0149 -0.02174,-0.0665 z m 4.108619,3.10984 c 0.0098,-0.0384 0.0092,-0.0391 -0.04489,-0.0541 l -0.05482,-0.0153 0.01136,-0.0572 c 0.01135,-0.057 0.0113,-0.0572 -0.03045,-0.065 -0.02793,-0.005 -0.04018,-0.0124 -0.03705,-0.0215 0.0027,-0.008 0.0058,-0.0259 0.007,-0.0408 0.0019,-0.0229 0.009,-0.0258 0.04767,-0.0196 0.04301,0.007 0.04594,0.005 0.05487,-0.0331 0.0094,-0.0402 0.0099,-0.0404 0.06784,-0.0282 0.05823,0.0124 0.05842,0.0123 0.06488,-0.0279 0.0056,-0.0349 0.01045,-0.0399 0.03603,-0.0377 0.0549,0.005 0.05718,0.01 0.03772,0.09 -0.01044,0.043 -0.01544,0.0826 -0.0111,0.088 0.0082,0.0104 0.430641,0.10972 0.443159,0.10415 0.0041,-0.002 0.01218,-0.0217 0.01818,-0.0442 0.01058,-0.0399 0.01209,-0.0405 0.05266,-0.026 0.04122,0.0149 0.04191,0.0146 0.05397,-0.0294 0.0116,-0.0423 0.01401,-0.044 0.05101,-0.0346 0.02142,0.005 0.04027,0.006 0.04203,0.002 0.0018,-0.004 0.05805,-0.24531 0.125104,-0.53559 0.103554,-0.44831 0.124939,-0.52846 0.142014,-0.53226 0.03562,-0.008 0.06035,0.009 0.05655,0.0375 -0.0019,0.0155 -0.05859,0.26352 -0.12572,0.55135 -0.06713,0.28785 -0.124383,0.53865 -0.127213,0.55736 -0.0049,0.0319 -0.0076,0.0331 -0.04649,0.0192 -0.04052,-0.0145 -0.04166,-0.014 -0.05793,0.0314 -0.01569,0.0436 -0.01852,0.0455 -0.05124,0.0338 -0.03272,-0.0117 -0.03558,-0.01 -0.05124,0.0337 -0.0144,0.0402 -0.02006,0.045 -0.04274,0.0373 -0.05004,-0.017 -0.486642,-0.11404 -0.500279,-0.11116 -0.0083,0.002 -0.01895,0.0283 -0.02701,0.0672 -0.02572,0.12449 -0.02943,0.13021 -0.07411,0.11415 -0.03633,-0.0132 -0.0389,-0.0175 -0.02981,-0.0531 z m -3.23256,-1.81051 c 0.01198,-0.0333 0.01053,-0.0354 -0.0395,-0.0533 -0.05004,-0.0181 -0.05149,-0.02 -0.0395,-0.0533 0.01107,-0.0308 0.0086,-0.0361 -0.02219,-0.0471 -0.03336,-0.012 -0.03402,-0.0141 -0.01596,-0.0645 0.01798,-0.0501 0.01995,-0.0516 0.05331,-0.0395 0.03336,0.0119 0.03402,0.0141 0.01596,0.0645 l -0.01868,0.0519 0.05196,0.0186 c 0.05004,0.0181 0.05148,0.02 0.0395,0.0533 -0.01107,0.0308 -0.0086,0.036 0.02218,0.0471 0.0308,0.0112 0.03323,0.0163 0.02218,0.0471 -0.01106,0.0307 -0.0163,0.0333 -0.0471,0.0223 -0.0308,-0.0112 -0.03323,-0.0164 -0.02219,-0.0471 z m -1.544111,-1.3634 0.01246,-0.0346 0.12125,0.0436 0.121249,0.0436 -0.01246,0.0346 -0.01246,0.0348 -0.121252,-0.0436 -0.121252,-0.0436 z m 1.755239,0.63085 0.01246,-0.0348 0.132796,0.0477 0.132797,0.0477 -0.01246,0.0348 -0.01246,0.0347 -0.132799,-0.0477 -0.132798,-0.0477 z m 3.595663,0.84327 c 0.01418,-0.0395 0.01645,-0.0405 0.05594,-0.0265 0.03947,0.0142 0.04037,0.0166 0.02405,0.051 -0.01505,0.0318 -0.02179,0.0349 -0.05594,0.0263 -0.03726,-0.01 -0.03816,-0.0117 -0.02405,-0.051 z m 0.101799,-0.0436 c -0.0013,-0.0658 -0.01485,-0.067 0.449998,0.041 0.239909,0.0558 0.445228,0.10494 0.456253,0.10919 0.03249,0.0127 0.0032,0.0776 -0.03265,0.0727 -0.0256,-0.004 -0.848788,-0.19315 -0.865757,-0.19942 -0.0041,-6e-4 -0.0076,-0.0122 -0.0079,-0.0235 z m -4.833894,-1.91881 0.01868,-0.0519 -0.05196,-0.0186 c -0.05005,-0.0181 -0.05148,-0.02 -0.0395,-0.0533 0.01108,-0.0308 0.0086,-0.036 -0.02219,-0.047 -0.03189,-0.0114 -0.03355,-0.0155 -0.02011,-0.0529 0.01336,-0.0372 0.01727,-0.0394 0.04917,-0.028 0.03189,0.0114 0.03355,0.0155 0.02011,0.0528 -0.01444,0.0402 -0.01425,0.0405 0.03744,0.0591 0.05004,0.018 0.05149,0.02 0.0395,0.0533 -0.01108,0.0308 -0.0086,0.0361 0.02219,0.0471 0.03336,0.012 0.03402,0.0141 0.01597,0.0645 -0.01799,0.0501 -0.01995,0.0516 -0.05332,0.0395 -0.03336,-0.0119 -0.03401,-0.0142 -0.01596,-0.0645 z m 1.212502,0.43578 c 0.01799,-0.0501 0.01997,-0.0516 0.05332,-0.0395 0.0308,0.0112 0.03606,0.009 0.04709,-0.0222 0.01147,-0.0319 0.01566,-0.0335 0.05287,-0.0201 0.03849,0.0138 0.04105,0.0129 0.05494,-0.0259 0.01417,-0.0395 0.01562,-0.0401 0.06072,-0.0239 0.04508,0.0162 0.04586,0.0174 0.03166,0.057 -0.01417,0.0395 -0.01562,0.04 -0.06071,0.0239 -0.04362,-0.0157 -0.04682,-0.0149 -0.05864,0.0181 -0.01147,0.0319 -0.01566,0.0335 -0.05287,0.0201 -0.04021,-0.0144 -0.04053,-0.0143 -0.0591,0.0374 -0.01799,0.0501 -0.01995,0.0515 -0.05332,0.0395 -0.03336,-0.0119 -0.03402,-0.0142 -0.01596,-0.0645 z m -0.544985,-0.51533 0.0498,-0.13857 0.04041,0.0144 0.04041,0.0144 -0.0498,0.13856 -0.0498,0.13858 -0.04041,-0.0145 -0.04041,-0.0144 z"
         id="path28"
         inkscape:connector-curvature="0" />
      <text
         xml:space="preserve"
         style="font-style:normal;font-weight:normal;font-size:0.5244832px;line-height:1.25;font-family:sans-serif;letter-spacing:0px;word-spacing:0px;fill:#000000;fill-opacity:1;stroke:none;stroke-width:0.01311208"
         x="3.899003"
         y="312.28815"
         id="text888-6"><tspan
           sodipodi:role="line"
           x="3.899003"
           y="312.28815"
           style="font-style:normal;font-variant:normal;font-weight:bold;font-stretch:normal;font-size:0.8391732px;font-family:sans-serif;-inkscape-font-specification:'sans-serif Bold';fill:#ffffff;stroke-width:0.01311208"
           id="tspan1286-6">Sunday</tspan><tspan
           sodipodi:role="line"
           x="3.899003"
           y="313.05869"
           style="font-style:normal;font-variant:normal;font-weight:normal;font-stretch:normal;font-size:0.8391732px;font-family:sans-serif;-inkscape-font-specification:sans-serif;fill:#ffffff;stroke-width:0.01311208"
           id="tspan1014-1" /><tspan
           sodipodi:role="line"
           x="3.899003"
           y="313.99271"
           style="font-style:normal;font-variant:normal;font-weight:normal;font-stretch:normal;font-size:0.8391732px;font-family:sans-serif;-inkscape-font-specification:sans-serif;fill:#ffffff;stroke-width:0.01311208"
           id="tspan1016-1"><tspan
   style="font-style:italic;font-variant:normal;font-weight:normal;font-stretch:normal;font-family:sans-serif;-inkscape-font-specification:'sans-serif Italic';fill:#ffffff;stroke-width:0.01311208"
   id="tspan1034-1">08:00</tspan> Breakfast </tspan><tspan
           sodipodi:role="line"
           x="3.899003"
           y="315.04169"
           style="font-style:normal;font-variant:normal;font-weight:normal;font-stretch:normal;font-size:0.8391732px;font-family:sans-serif;-inkscape-font-specification:sans-serif;fill:#ffffff;stroke-width:0.01311208"
           id="tspan1022-4"><tspan
   style="font-style:italic;font-variant:normal;font-weight:normal;font-stretch:normal;font-family:sans-serif;-inkscape-font-specification:'sans-serif Italic';fill:#ffffff;stroke-width:0.01311208"
   id="tspan1040-0">10:00</tspan> Coding </tspan><tspan
           sodipodi:role="line"
           x="3.899003"
           y="316.09064"
           style="font-style:normal;font-variant:normal;font-weight:normal;font-stretch:normal;font-size:0.8391732px;font-family:sans-serif;-inkscape-font-specification:sans-serif;fill:#ffffff;stroke-width:0.01311208"
           id="tspan1024-4"><tspan
   style="font-style:italic;font-variant:normal;font-weight:normal;font-stretch:normal;font-family:sans-serif;-inkscape-font-specification:'sans-serif Italic';fill:#ffffff;stroke-width:0.01311208"
   id="tspan1042-3">12:30</tspan> Snack time </tspan><tspan
           sodipodi:role="line"
           x="3.899003"
           y="317.13962"
           style="font-style:normal;font-variant:normal;font-weight:normal;font-stretch:normal;font-size:0.8391732px;font-family:sans-serif;-inkscape-font-specification:sans-serif;fill:#ffffff;stroke-width:0.01311208"
           id="tspan1026-3"><tspan
   style="font-style:italic;font-variant:normal;font-weight:normal;font-stretch:normal;font-family:sans-serif;-inkscape-font-specification:'sans-serif Italic';fill:#ffffff;stroke-width:0.01311208"
   id="tspan1044-9">14:30</tspan> Coding</tspan><tspan
           sodipodi:role="line"
           x="3.899003"
           y="318.1886"
           style="font-style:normal;font-variant:normal;font-weight:normal;font-stretch:normal;font-size:0.8391732px;font-family:sans-serif;-inkscape-font-specification:sans-serif;fill:#ffffff;stroke-width:0.01311208"
           id="tspan1624"><tspan
   style="font-style:italic;font-variant:normal;font-weight:normal;font-stretch:normal;font-family:sans-serif;-inkscape-font-specification:'sans-serif Italic';fill:#ffffff;stroke-width:0.01311208"
   id="tspan1626">16:00 </tspan>Hands off: Stop Coding </tspan><tspan
           sodipodi:role="line"
           x="3.899003"
           y="319.23755"
           style="font-style:normal;font-variant:normal;font-weight:normal;font-stretch:normal;font-size:0.8391732px;font-family:sans-serif;-inkscape-font-specification:sans-serif;fill:#ffffff;stroke-width:0.01311208"
           id="tspan1028-3"><tspan
   style="font-style:normal;font-variant:normal;font-weight:bold;font-stretch:normal;font-family:sans-serif;-inkscape-font-specification:'sans-serif Bold';fill:#ffffff;stroke-width:0.01311208"
   id="tspan1046-5">16:15</tspan> Project <tspan
   style="font-style:normal;font-variant:normal;font-weight:bold;font-stretch:normal;font-family:sans-serif;-inkscape-font-specification:'sans-serif Bold';fill:#ffffff;stroke-width:0.01311208"
   id="tspan1632">Pitching</tspan> </tspan><tspan
           sodipodi:role="line"
           x="3.899003"
           y="320.41025"
           style="font-style:normal;font-variant:normal;font-weight:normal;font-stretch:normal;font-size:0.8391732px;font-family:sans-serif;-inkscape-font-specification:sans-serif;fill:#ffffff;stroke-width:0.01311208"
           id="tspan1030-9"><tspan
   style="font-style:normal;font-variant:normal;font-weight:bold;font-stretch:normal;font-family:sans-serif;-inkscape-font-specification:'sans-serif Bold';fill:#ffffff;stroke-width:0.01311208"
   id="tspan1048-8">17:30</tspan>  Announcement of <tspan
   style="font-style:normal;font-variant:normal;font-weight:bold;font-stretch:normal;font-size:0.97903538px;font-family:sans-serif;-inkscape-font-specification:'sans-serif Bold';fill:#ffffff;stroke-width:0.01311208"
   id="tspan1638">winners</tspan> </tspan><tspan
           sodipodi:role="line"
           x="3.899003"
           y="321.51031"
           style="font-style:normal;font-variant:normal;font-weight:normal;font-stretch:normal;font-size:0.8391732px;font-family:sans-serif;-inkscape-font-specification:sans-serif;fill:#ffffff;stroke-width:0.01311208"
           id="tspan1281">                      &amp; apéro </tspan><tspan
           sodipodi:role="line"
           x="3.899003"
           y="322.28085"
           style="font-style:normal;font-variant:normal;font-weight:normal;font-stretch:normal;font-size:0.8391732px;font-family:sans-serif;-inkscape-font-specification:sans-serif;fill:#ffffff;stroke-width:0.01311208"
           id="tspan1032-9" /><tspan
           sodipodi:role="line"
           x="3.899003"
           y="322.93646"
           style="font-style:normal;font-variant:normal;font-weight:bold;font-stretch:normal;font-size:0.8391732px;font-family:sans-serif;-inkscape-font-specification:'sans-serif Bold';fill:#ffffff;stroke-width:0.01311208"
           id="tspan1260-9" /><tspan
           sodipodi:role="line"
           x="3.899003"
           y="323.59207"
           style="font-style:normal;font-variant:normal;font-weight:bold;font-stretch:normal;font-size:0.8391732px;font-family:sans-serif;-inkscape-font-specification:'sans-serif Bold';fill:#ffffff;stroke-width:0.01311208"
           id="tspan1068-1" /><tspan
           sodipodi:role="line"
           x="3.899003"
           y="324.24765"
           style="font-style:normal;font-variant:normal;font-weight:bold;font-stretch:normal;font-size:0.8391732px;font-family:sans-serif;-inkscape-font-specification:'sans-serif Bold';fill:#ffffff;stroke-width:0.01311208"
           id="tspan1070-0" /><tspan
           sodipodi:role="line"
           x="3.899003"
           y="324.90326"
           style="font-style:normal;font-variant:normal;font-weight:bold;font-stretch:normal;font-size:0.8391732px;font-family:sans-serif;-inkscape-font-specification:'sans-serif Bold';fill:#ffffff;stroke-width:0.01311208"
           id="tspan1072-7" /><tspan
           sodipodi:role="line"
           x="3.899003"
           y="325.55887"
           style="font-style:normal;font-variant:normal;font-weight:bold;font-stretch:normal;font-size:0.8391732px;font-family:sans-serif;-inkscape-font-specification:'sans-serif Bold';fill:#ffffff;stroke-width:0.01311208"
           id="tspan1074-6" /><tspan
           sodipodi:role="line"
           x="3.899003"
           y="326.21448"
           style="font-style:normal;font-variant:normal;font-weight:bold;font-stretch:normal;font-size:0.8391732px;font-family:sans-serif;-inkscape-font-specification:'sans-serif Bold';fill:#ffffff;stroke-width:0.01311208"
           id="tspan890-9" /><tspan
           sodipodi:role="line"
           x="3.899003"
           y="326.87009"
           style="font-style:normal;font-variant:normal;font-weight:bold;font-stretch:normal;font-size:0.8391732px;font-family:sans-serif;-inkscape-font-specification:'sans-serif Bold';fill:#ffffff;stroke-width:0.01311208"
           id="tspan892-4" /><tspan
           sodipodi:role="line"
           x="3.899003"
           y="327.5257"
           style="font-style:normal;font-variant:normal;font-weight:bold;font-stretch:normal;font-size:0.8391732px;font-family:sans-serif;-inkscape-font-specification:'sans-serif Bold';fill:#ffffff;stroke-width:0.01311208"
           id="tspan894-7" /><tspan
           sodipodi:role="line"
           x="3.899003"
           y="328.18127"
           style="font-style:normal;font-variant:normal;font-weight:bold;font-stretch:normal;font-size:0.8391732px;font-family:sans-serif;-inkscape-font-specification:'sans-serif Bold';fill:#ffffff;stroke-width:0.01311208"
           id="tspan898-8" /></text>
    </g>
  </g>
</svg>
