<?xml version="1.0" encoding="UTF-8" standalone="no"?>
<svg
   xmlns:dc="http://purl.org/dc/elements/1.1/"
   xmlns:cc="http://creativecommons.org/ns#"
   xmlns:rdf="http://www.w3.org/1999/02/22-rdf-syntax-ns#"
   xmlns:svg="http://www.w3.org/2000/svg"
   xmlns="http://www.w3.org/2000/svg"
   xmlns:sodipodi="http://sodipodi.sourceforge.net/DTD/sodipodi-0.dtd"
   xmlns:inkscape="http://www.inkscape.org/namespaces/inkscape"
   id="svg4371"
   height="336.25mm"
   width="194.87mm"
   version="1.1"
   viewBox="0 0 690.47591 1191.4248"
   sodipodi:docname="award.svg"
   inkscape:version="0.92.4 (5da689c313, 2019-01-14)">
  <metadata
     id="metadata19">
    <rdf:RDF>
      <cc:Work
         rdf:about="">
        <dc:format>image/svg+xml</dc:format>
        <dc:type
           rdf:resource="http://purl.org/dc/dcmitype/StillImage" />
      </cc:Work>
    </rdf:RDF>
  </metadata>
  <sodipodi:namedview
     pagecolor="#ffffff"
     bordercolor="#666666"
     borderopacity="1"
     objecttolerance="10"
     gridtolerance="10"
     guidetolerance="10"
     inkscape:pageopacity="0"
     inkscape:pageshadow="2"
     inkscape:window-width="1226"
     inkscape:window-height="656"
     id="namedview17"
     showgrid="false"
     inkscape:zoom="0.18570012"
     inkscape:cx="368.25826"
     inkscape:cy="635.43307"
     inkscape:window-x="54"
     inkscape:window-y="27"
     inkscape:window-maximized="1"
     inkscape:current-layer="svg4371" />
  <defs
     id="defs4373">
    <clipPath
       id="clipPath80"
       clipPathUnits="userSpaceOnUse">
      <path
         id="path82"
         d="m360 569.44h121.38v-418.88h-121.38v418.88z" />
    </clipPath>
  </defs>
  <g
     id="layer1"
     transform="matrix(0.64905381,0,0,0.64905381,438.78799,193.41524)">
    <g
       id="g4343"
       transform="matrix(1.25,0,0,-1.25,-719.41,1308.2)">
      <g
         id="g9">
        <path
           id="path48"
           d="m 344.94,-388.74 c 0,0 -0.1052,19.326 1.6094,50.221 h -99.008 l -1.0508,12.713 c -0.26453,3.18 -6.1666,78.823 16.4,160.82 28.715,104.34 90.768,170.75 180.02,193.12 23.494,35.213 52.617,63.924 88.727,81.111 h -4.1621 c -9.9125,0 -18.025,8.1109 -18.025,18.023 v 7.8477 c 0,9.9125 8.1129,18.025 18.025,18.025 h 29.885 c 3.4051,36.295 22.431,294.99 -111.98,429.01 h 116.6 20.793 154.25 c -134.41,-134.02 -115.39,-392.71 -111.98,-429.01 h 29.172 c 9.9125,0 18.025,-8.1129 18.025,-18.025 v -7.8477 c 0,-9.9125 -8.1129,-18.023 -18.025,-18.023 h -4.1602 c 36.109,-17.187 65.232,-45.898 88.727,-81.111 89.25,-22.367 151.3,-88.778 180.02,-193.12 22.567,-81.999 16.665,-157.64 16.4,-160.82 l -1.0488,-12.713 h -99.008 c 1.7146,-30.895 1.6094,-50.221 1.6094,-50.221 h -245.9 -0.004 -245.9 z m -71.41,77.926 h 74.859 c 6.2764,80.249 23.949,206.84 73.635,303.28 -64.68,-25.558 -109.07,-80.575 -132.22,-164.12 -16.18,-58.36 -16.91,-114.7 -16.27,-139.16 z m 559.76,0 h 74.861 c 0.64283,24.461 -0.0918,80.806 -16.268,139.16 -23.15,83.546 -67.53,138.56 -132.22,164.12 49.69,-96.44 67.36,-223.03 73.63,-303.28 z m -435.2,900.5 v 190.49 h 385.5 v -190.49 z"
           transform="matrix(0.8,0,0,-0.8,0,720)"
           inkscape:connector-curvature="0"
           style="fill:#fdd22b" />
        <path
           id="path60"
           d="M 589.88,239.94 H 355.47 c -5.006,0 -9.1019,4.0958 -9.1019,9.1019 v 3.9616 c 0,5.006 4.0958,9.1019 9.1019,9.1019 h 234.41 c 5.006,0 9.1019,-4.0958 9.1019,-9.1019 v -3.9616 c 0,-5.006 -4.0958,-9.1019 -9.1019,-9.1019"
           inkscape:connector-curvature="0"
           style="fill:#f26c46" />
        <path
           id="path64"
           d="M 643.77,77.852 H 301.58 v 31.863 h 342.19 z"
           inkscape:connector-curvature="0"
           style="fill:#f04e38" />
        <path
           id="path66"
           d="M 583.5,122.83 H 361.84 V 232.36 H 583.5 Z"
           inkscape:connector-curvature="0"
           style="fill:#e7e8e9" />
      </g>
      <g
         id="g86"
         clip-path="url(#clipPath80)"
         transform="matrix(2.2755,0,0,2.2755,-346.5,-264.75)"
         style="opacity:0.05000299">
        <g
           id="g88"
           transform="translate(465.84,493.12)">
          <path
             id="path90"
             d="m 0,0 c -8.14,-29.371 -23.751,-48.702 -46.489,-57.687 17.464,33.904 23.682,78.4 25.889,106.61 H 5.719 C 5.944,40.324 5.686,20.515 0,0 m 15.224,54.196 -0.368,4.47 h -34.804 c 0.606,10.891 0.561,17.656 0.561,17.656 h -86.453 -10e-4 v -418.88 h 75.191 v 14.003 h -7.425 v 60.883 h -12.433 c 0.103,0.391 0.174,0.795 0.174,1.217 0,2.679 -2.191,4.871 -4.87,4.871 h -2.513 c -43.618,47.92 -37.281,134.79 -36.103,147.39 h 8.878 c 4.244,0 7.716,3.473 7.716,7.717 0,4.244 -3.472,7.716 -7.716,7.716 h -0.144 c 12.714,6.039 22.971,16.125 31.241,28.517 31.384,7.86 53.207,31.207 63.303,67.896 7.934,28.829 5.859,55.423 5.766,56.541"
             inkscape:connector-curvature="0"
             style="fill:#373535" />
        </g>
      </g>
    </g>
  </g>
</svg>
