<?xml version="1.0" encoding="UTF-8" standalone="no"?>
<svg id="svg4371" xmlns:rdf="http://www.w3.org/1999/02/22-rdf-syntax-ns#" xmlns="http://www.w3.org/2000/svg" height="336.25mm" width="194.87mm" version="1.1" xmlns:cc="http://creativecommons.org/ns#" xmlns:dc="http://purl.org/dc/elements/1.1/" viewBox="0 0 690.47591 1191.4248">
<defs id="defs4373">
<clipPath id="clipPath80" clipPathUnits="userSpaceOnUse">
<path id="path82" d="m360 569.44h121.38v-418.88h-121.38v418.88z"/>
</clipPath>
</defs>
<g id="layer1" transform="translate(473.81 -19.507)">
<g id="g4343" transform="matrix(1.25 0 0 -1.25 -719.41 1308.2)">
<g>
<path id="path48" d="m344.94-388.74s-0.1052 19.326 1.6094 50.221h-99.008l-1.0508 12.713c-0.26453 3.18-6.1666 78.823 16.4 160.82 28.715 104.34 90.768 170.75 180.02 193.12 23.494 35.213 52.617 63.924 88.727 81.111h-4.1621c-9.9125 0-18.025 8.1109-18.025 18.023v7.8477c0 9.9125 8.1129 18.025 18.025 18.025h29.885c3.4051 36.295 22.431 294.99-111.98 429.01h116.6 20.793 154.25c-134.41-134.02-115.39-392.71-111.98-429.01h29.172c9.9125 0 18.025-8.1129 18.025-18.025v-7.8477c0-9.9125-8.1129-18.023-18.025-18.023h-4.1602c36.109-17.187 65.232-45.898 88.727-81.111 89.25-22.367 151.3-88.778 180.02-193.12 22.567-81.999 16.665-157.64 16.4-160.82l-1.0488-12.713h-99.008c1.7146-30.895 1.6094-50.221 1.6094-50.221h-245.9-0.004-245.9zm-71.41 77.926h74.859c6.2764 80.249 23.949 206.84 73.635 303.28-64.68-25.558-109.07-80.575-132.22-164.12-16.18-58.36-16.91-114.7-16.27-139.16zm559.76 0h74.861c0.64283 24.461-0.0918 80.806-16.268 139.16-23.15 83.546-67.53 138.56-132.22 164.12 49.69-96.44 67.36-223.03 73.63-303.28zm-435.2 900.5v190.49h385.5v-190.49h-385.5z" transform="matrix(.8 0 0 -.8 0 720)" fill="#fdd22b"/>
<path id="path60" d="m589.88 239.94h-234.41c-5.006 0-9.1019 4.0958-9.1019 9.1019v3.9616c0 5.006 4.0958 9.1019 9.1019 9.1019h234.41c5.006 0 9.1019-4.0958 9.1019-9.1019v-3.9616c0-5.006-4.0958-9.1019-9.1019-9.1019" fill="#f26c46"/>
<path id="path64" d="m643.77 77.852h-342.19v31.863h342.19v-31.863z" fill="#f04e38"/>
<path id="path66" d="m583.5 122.83h-221.66v109.53h221.66v-109.53z" fill="#e7e8e9"/>
</g>
<g id="g86" opacity=".050003" clip-path="url(#clipPath80)" transform="matrix(2.2755 0 0 2.2755 -346.5 -264.75)">
<g id="g88" transform="translate(465.84 493.12)">
<path id="path90" d="m0 0c-8.14-29.371-23.751-48.702-46.489-57.687 17.464 33.904 23.682 78.4 25.889 106.61h26.319c0.225-8.599-0.033-28.408-5.719-48.923m15.224 54.196-0.368 4.47h-34.804c0.606 10.891 0.561 17.656 0.561 17.656h-86.453-0.001v-418.88h75.191v14.003h-7.425v60.883h-12.433c0.103 0.391 0.174 0.795 0.174 1.217 0 2.679-2.191 4.871-4.87 4.871h-2.513c-43.618 47.92-37.281 134.79-36.103 147.39h8.878c4.244 0 7.716 3.473 7.716 7.717s-3.472 7.716-7.716 7.716h-0.144c12.714 6.039 22.971 16.125 31.241 28.517 31.384 7.86 53.207 31.207 63.303 67.896 7.934 28.829 5.859 55.423 5.766 56.541" fill="#373535"/>
</g>
</g>
</g>
</g>
</svg>
