<?xml version="1.0" encoding="UTF-8" standalone="no"?>
<!-- Created with Inkscape (http://www.inkscape.org/) -->

<svg
   xmlns:dc="http://purl.org/dc/elements/1.1/"
   xmlns:cc="http://creativecommons.org/ns#"
   xmlns:rdf="http://www.w3.org/1999/02/22-rdf-syntax-ns#"
   xmlns:svg="http://www.w3.org/2000/svg"
   xmlns="http://www.w3.org/2000/svg"
   xmlns:sodipodi="http://sodipodi.sourceforge.net/DTD/sodipodi-0.dtd"
   xmlns:inkscape="http://www.inkscape.org/namespaces/inkscape"
   width="74mm"
   height="52mm"
   viewBox="0 0 7.3999995 5.2"
   version="1.1"
   id="svg8"
   inkscape:version="0.92.3 (2405546, 2018-03-11)"
   sodipodi:docname="logo white on black A8 landscape.svg">
  <defs
     id="defs2" />
  <sodipodi:namedview
     id="base"
     pagecolor="#ffffff"
     bordercolor="#666666"
     borderopacity="1.0"
     inkscape:pageopacity="0"
     inkscape:pageshadow="2"
     inkscape:zoom="1"
     inkscape:cx="243.44216"
     inkscape:cy="259.23781"
     inkscape:document-units="cm"
     inkscape:current-layer="layer1"
     showgrid="true"
     scale-x="1"
     showguides="true"
     borderlayer="false"
     showborder="true"
     inkscape:showpageshadow="true"
     inkscape:window-width="1718"
     inkscape:window-height="1368"
     inkscape:window-x="-7"
     inkscape:window-y="0"
     inkscape:window-maximized="0"
     units="mm"
     inkscape:pagecheckerboard="true" />
  <metadata
     id="metadata5">
    <rdf:RDF>
      <cc:Work
         rdf:about="">
        <dc:format>image/svg+xml</dc:format>
        <dc:type
           rdf:resource="http://purl.org/dc/dcmitype/StillImage" />
        <dc:title></dc:title>
      </cc:Work>
    </rdf:RDF>
  </metadata>
  <g
     inkscape:label="Ebene 1"
     inkscape:groupmode="layer"
     id="layer1"
     transform="translate(0,-284.78)">
    <rect
       style="opacity:1;vector-effect:none;fill:#000000;fill-opacity:1;stroke:none;stroke-width:0.14299999;stroke-linecap:butt;stroke-linejoin:miter;stroke-miterlimit:4;stroke-dasharray:none;stroke-dashoffset:0;stroke-opacity:0.27096779"
       id="rect816"
       width="7.4000001"
       height="5.1999998"
       x="0"
       y="284.78" />
    <g
       id="g26"
       transform="matrix(0.31399195,0,0,0.31399195,0.01666845,187.74276)"
       style="fill:#ffffff">
      <path
         style="fill:#ffffff;fill-opacity:1;stroke-width:0.02645833"
         d="m 10.100005,322.72118 c -0.7639849,-0.0925 -1.399531,-0.16867 -1.4123254,-0.16927 -0.022081,-0.001 -0.00554,-0.2824 0.027802,-0.47304 0.014694,-0.084 0.019789,-0.0875 0.1046718,-0.0716 0.077702,0.0146 0.089226,0.01 0.089226,-0.0374 0,-0.0523 -0.014415,-0.0541 -0.4365625,-0.0541 -0.2401094,0 -0.4365625,-0.006 -0.4365625,-0.0133 0,-0.007 0.2976563,-0.82334 0.6614583,-1.81338 0.3638021,-0.99004 0.6614584,-1.81154 0.6614584,-1.82555 0,-0.014 -0.041672,-0.0255 -0.092604,-0.0255 -0.1070478,0 -0.1036212,0.0214 -0.057315,-0.35719 l 0.032366,-0.26458 0.105079,0.009 c 0.057793,0.005 0.7050229,0.0792 1.4382879,0.16536 0.733264,0.0862 1.347354,0.15673 1.364644,0.15673 0.02412,0 0.02356,0.0631 -0.0024,0.2712 -0.01862,0.14916 -0.03442,0.28964 -0.03511,0.31219 -9.53e-4,0.0309 -0.02347,0.0384 -0.09126,0.0305 -0.110921,-0.0129 -0.104825,-0.0317 -0.164107,0.50399 l -0.04612,0.41672 H 11.70939 c -0.09422,0 -0.101242,0.005 -0.101242,0.0772 0,0.13623 -0.02291,0.16398 -0.120262,0.14572 -0.08397,-0.0158 -0.08802,-0.0127 -0.09615,0.0721 -0.0078,0.0815 -0.01646,0.0892 -0.107704,0.0968 -0.08676,0.007 -0.09922,0.0167 -0.09922,0.0762 0,0.0374 0.154782,0.48756 0.343959,1.00042 0.189177,0.51286 0.343958,0.93996 0.343958,0.9491 0,0.009 -0.07716,0.0166 -0.171475,0.0166 -0.191444,0 -0.178593,-0.015 -0.212903,0.24845 -0.01835,0.14092 0.0035,0.17375 0.116125,0.17448 0.05587,3.6e-4 0.06089,0.009 0.04746,0.0864 -0.0083,0.0473 -0.02303,0.17231 -0.03282,0.27782 -0.0161,0.17344 -0.02318,0.19156 -0.07392,0.18911 -0.03086,-10e-4 -0.681191,-0.0784 -1.445175,-0.17089 z m 1.164166,-0.15869 c 0,-0.0501 -0.01102,-0.091 -0.02448,-0.091 -0.01346,0 -0.472089,-0.0536 -1.019169,-0.11907 -0.5470792,-0.0655 -1.0286846,-0.11906 -1.070234,-0.11906 -0.06362,0 -0.078184,0.0132 -0.092265,0.0836 -0.0092,0.046 -0.013511,0.0868 -0.00959,0.0907 0.014194,0.0142 2.176567,0.26672 2.195892,0.25644 0.01091,-0.006 0.01984,-0.0515 0.01984,-0.1016 z m 0.03784,-0.33578 c 0.0068,-0.0328 0.02562,-0.18455 0.0418,-0.33735 0.01618,-0.15279 0.03559,-0.31055 0.04314,-0.35057 0.0129,-0.0684 0.008,-0.0728 -0.08098,-0.0728 -0.09285,0 -0.09471,-0.002 -0.09471,-0.10583 0,-0.1 -0.0044,-0.10584 -0.07937,-0.10584 -0.07497,0 -0.07938,-0.006 -0.07938,-0.10583 0,-0.10168 -0.0034,-0.10585 -0.08599,-0.10624 -0.119864,-5.6e-4 -0.158417,-0.0322 -0.147885,-0.12129 0.0078,-0.0664 -9.92e-4,-0.0777 -0.0704,-0.0897 -0.06964,-0.012 -0.08038,-0.0259 -0.08759,-0.11284 -0.0074,-0.0887 -0.01592,-0.0991 -0.08158,-0.0991 -0.04035,0 -0.07925,-0.006 -0.08645,-0.0131 -0.0072,-0.007 0.0022,-0.13519 0.02079,-0.28443 0.01863,-0.14924 0.03444,-0.28755 0.03513,-0.30736 9.34e-4,-0.0266 0.02505,-0.0315 0.09249,-0.0189 0.0879,0.0165 0.09187,0.0137 0.108778,-0.0764 0.01589,-0.0847 0.02582,-0.0935 0.105107,-0.0935 0.07621,0 0.08987,-0.0105 0.105396,-0.0812 0.01713,-0.078 0.02274,-0.0809 0.141008,-0.0735 l 0.12317,0.008 0.01323,-0.1183 0.01323,-0.1183 0.09922,0.009 c 0.09815,0.009 0.09922,0.008 0.09922,-0.0881 0,-0.0957 0.0011,-0.0967 0.09922,-0.0881 l 0.09922,0.009 0.04605,-0.36846 c 0.02533,-0.20266 0.04144,-0.37307 0.03581,-0.37871 -0.02853,-0.0285 -2.1737364,-0.26329 -2.1885642,-0.23951 -0.00907,0.0146 -0.031845,0.17702 -0.050608,0.36105 -0.018763,0.18402 -0.035153,0.33978 -0.036423,0.34613 -0.00127,0.006 0.036386,0.0216 0.083681,0.0338 0.076221,0.0197 0.08599,0.0327 0.08599,0.11413 0,0.0729 0.010468,0.0919 0.050753,0.0919 0.1034183,0 0.1228964,0.0236 0.1121802,0.13598 -0.011861,0.12438 0.016912,0.15404 0.1500217,0.15466 0.085602,3.9e-4 0.087816,0.003 0.079375,0.0996 -0.0083,0.0944 -0.0046,0.0996 0.0758,0.1074 0.07651,0.007 0.08525,0.0174 0.0926,0.10583 0.0073,0.0873 0.01663,0.0985 0.08869,0.10554 l 0.08058,0.008 -0.03328,0.26992 c -0.0183,0.14846 -0.03373,0.28409 -0.03427,0.30141 -5.48e-4,0.0173 -0.04564,0.0352 -0.100213,0.0397 -0.09032,0.007 -0.09996,0.0158 -0.107436,0.0932 -0.0077,0.0795 -0.01348,0.084 -0.088668,0.0689 -0.089228,-0.0179 -0.1269301,0.0172 -0.1276053,0.1186 -3.731e-4,0.056 -0.010373,0.0602 -0.1260822,0.0529 -0.1248577,-0.008 -0.1257321,-0.007 -0.134107,0.0799 -0.00805,0.0839 -0.01284,0.0875 -0.1058333,0.0794 -0.092603,-0.008 -0.097812,-0.004 -0.1056944,0.0775 -0.00774,0.0802 -0.014926,0.086 -0.1073862,0.086 h -0.099095 l -0.045853,0.40018 c -0.025219,0.2201 -0.04238,0.40364 -0.038135,0.40787 0.00425,0.004 0.094039,0.0162 0.1995413,0.0266 l 0.1918229,0.0189 v -0.0989 c 0,-0.0793 0.00829,-0.0957 0.041852,-0.0828 0.023018,0.009 0.076596,0.0161 0.1190625,0.0161 0.07244,0 0.077211,0.007 0.077211,0.10583 0,0.10332 0.0022,0.10584 0.092604,0.10584 0.056252,0 0.092746,-0.013 0.092965,-0.0331 2.117e-4,-0.0182 0.00734,-0.0591 0.015872,-0.0909 0.01333,-0.0497 0.00212,-0.0603 -0.079736,-0.0757 -0.082707,-0.0155 -0.095247,-0.0277 -0.095247,-0.0927 0,-0.0902 0.017824,-0.10382 0.1125987,-0.0857 0.061576,0.0118 0.07261,0.027 0.07261,0.10057 0,0.0877 0.034402,0.11881 0.1315113,0.11881 0.03385,0 0.05297,-0.0275 0.06548,-0.0942 0.01562,-0.0832 0.02598,-0.0933 0.08893,-0.086 0.05863,0.007 0.07271,0.0232 0.07942,0.0925 0.0078,0.0802 0.0033,0.0847 -0.0926,0.0926 -0.09164,0.008 -0.101504,0.0159 -0.108879,0.0919 -0.0073,0.0749 6.45e-4,0.0855 0.07607,0.10205 0.09299,0.0204 0.129384,-0.0111 0.130076,-0.11284 2.78e-4,-0.0409 0.01628,-0.0595 0.05116,-0.0595 0.104905,0 0.131112,0.0266 0.116292,0.11788 -0.01362,0.0839 -0.01045,0.0877 0.08218,0.0986 0.11479,0.0134 0.12119,0.009 0.12119,-0.0901 0,-0.0736 0.0042,-0.0762 0.112448,-0.0683 0.108798,0.008 0.112712,0.0113 0.120567,0.10579 0.0088,0.1055 0.02377,0.11219 0.275804,0.123 0.08275,0.004 0.100718,-0.005 0.111101,-0.0553 z m -0.787904,-0.22505 c -0.0068,-0.011 -0.0061,-0.0527 0.0015,-0.0926 0.01199,-0.0627 0.02652,-0.0726 0.106486,-0.0726 0.08312,0 0.09097,0.006 0.07665,0.0595 -0.0088,0.0327 -0.01612,0.0744 -0.01631,0.0926 -3.89e-4,0.0355 -0.147417,0.0469 -0.168345,0.0131 z m -0.161752,-0.21653 c -0.0084,-0.0137 -0.0077,-0.0726 0.0016,-0.13099 0.01634,-0.10221 0.02004,-0.10556 0.09979,-0.0904 0.04555,0.009 0.08388,0.017 0.08518,0.0186 0.0013,0.002 -0.0029,0.0534 -0.0094,0.11526 -0.01078,0.10309 -0.018,0.11245 -0.08679,0.11245 -0.04127,0 -0.08195,-0.0112 -0.09039,-0.0249 z m -0.3846386,-0.10527 c 0,-0.12622 0.024895,-0.16091 0.1154696,-0.16091 0.08255,0 0.08326,10e-4 0.07388,0.11906 -0.0092,0.1159 -0.01186,0.11906 -0.09941,0.11906 -0.081734,0 -0.08994,-0.007 -0.08994,-0.0772 z m 0.2976566,-0.33834 c -0.04525,-0.009 -0.05953,-0.0297 -0.05953,-0.0874 0,-0.0914 0.01761,-0.10496 0.112599,-0.0868 0.06213,0.0119 0.07261,0.0268 0.07261,0.1034 0,0.0908 -0.0057,0.094 -0.125679,0.0708 z m 0.210124,-1.564 c -0.08101,-0.008 -0.08693,-0.0147 -0.07938,-0.0926 0.0059,-0.0609 0.02277,-0.0861 0.06107,-0.091 0.08242,-0.0105 0.123833,0.0312 0.11441,0.11537 -0.0078,0.0694 -0.01683,0.0758 -0.09611,0.0682 z m 0.135202,-0.29321 0.01535,-0.12964 -0.09104,-0.0171 c -0.07936,-0.0149 -0.09104,-0.0271 -0.09104,-0.0953 0,-0.0714 0.0078,-0.0782 0.09101,-0.0782 0.08606,0 0.09145,0.005 0.09922,0.0992 0.0074,0.0897 0.01615,0.1 0.09099,0.10727 0.07641,0.007 0.08417,6.1e-4 0.100914,-0.0886 0.01562,-0.0833 0.02616,-0.0945 0.07597,-0.0812 0.03181,0.009 0.06677,0.0157 0.07768,0.0159 0.01091,2.1e-4 0.01984,0.0404 0.01984,0.0894 0,0.0858 -0.0036,0.0889 -0.09922,0.086 -0.09836,-0.003 -0.09929,-0.002 -0.107355,0.10943 -0.0079,0.10985 -0.01033,0.11245 -0.102904,0.11245 h -0.09477 z m -0.307068,0.0814 c -0.06961,-0.008 -0.07369,-0.0153 -0.06615,-0.11906 0.0075,-0.10343 0.01358,-0.11109 0.09403,-0.11885 0.08349,-0.008 0.08598,-0.005 0.08558,0.0926 -5.15e-4,0.1287 -0.0217,0.15582 -0.113471,0.1453 z m -0.230081,-0.36023 c 0,-0.0904 0.0038,-0.0943 0.09428,-0.0943 0.09043,0 0.09394,0.004 0.08599,0.086 -0.0073,0.0756 -0.01867,0.087 -0.09428,0.0943 -0.08248,0.008 -0.08599,0.004 -0.08599,-0.086 z m -0.1173162,0.96405 c 0.015512,-0.12369 0.02374,-0.23383 0.018282,-0.24474 -0.00546,-0.0109 -0.042484,-0.0198 -0.082282,-0.0198 -0.067291,0 -0.077375,0.0154 -0.1439593,0.21985 -0.03938,0.12092 -0.071599,0.23469 -0.071599,0.25281 0,0.0228 0.038713,0.0305 0.125677,0.0249 l 0.1256771,-0.008 z m 1.8209022,-1.96288 c 0.0093,-0.0464 0.0078,-0.0931 -0.0033,-0.10376 -0.02825,-0.0272 -2.1161465,-0.27022 -2.1639506,-0.25188 -0.039547,0.0152 -0.05678,0.17403 -0.019193,0.17692 0.010914,8.4e-4 0.4901406,0.0589 1.0649476,0.12912 0.574808,0.0702 1.058499,0.12902 1.07487,0.13076 0.01637,0.002 0.03736,-0.0348 0.04663,-0.0812 z m 1.656622,3.72101 c -0.09459,-0.0203 -0.280179,-0.0903 -0.412423,-0.15567 -0.413669,-0.20444 -0.708822,-0.57794 -0.848171,-1.07329 -0.0685,-0.24351 -0.07004,-1.02065 -0.0025,-1.27 0.164374,-0.607 0.592584,-1.03767 1.19697,-1.20384 0.244646,-0.0673 0.776692,-0.0821 1.047046,-0.0292 0.503044,0.0984 0.959157,0.41986 1.168203,0.8233 0.09061,0.17488 0.200977,0.5031 0.176969,0.52632 -0.02068,0.02 -0.977917,0.15322 -1.010647,0.14066 -0.01799,-0.007 -0.0467,-0.0649 -0.0638,-0.12882 -0.07917,-0.296 -0.372825,-0.51204 -0.696001,-0.51204 -0.317833,0 -0.573377,0.18163 -0.69097,0.49111 -0.08021,0.2111 -0.108237,0.47965 -0.07522,0.72082 0.05194,0.37937 0.185577,0.61458 0.423834,0.74599 0.126168,0.0696 0.170017,0.0794 0.355582,0.0794 0.185371,0 0.229348,-0.01 0.353993,-0.0788 0.162487,-0.09 0.306761,-0.26278 0.351741,-0.42124 0.01694,-0.0597 0.03913,-0.11823 0.04931,-0.13014 0.01019,-0.0119 0.246306,0.0114 0.524707,0.0518 0.575719,0.0835 0.543241,0.0594 0.451059,0.33455 -0.13985,0.41743 -0.42131,0.73507 -0.823084,0.92889 -0.139836,0.0675 -0.334412,0.13665 -0.450209,0.16009 -0.252098,0.051 -0.788637,0.0512 -1.026376,2.3e-4 z M 4.0675041,320.0637 v -1.82563 h 0.5291667 0.5291666 v 0.68792 0.68792 h 0.635 0.635 v -0.68792 -0.68792 h 0.5291667 0.5291667 v 1.82563 1.82562 H 6.9250045 6.3958378 v -0.68791 -0.68792 h -0.635 -0.635 v 0.68792 0.68791 H 4.5966712 4.0675045 Z m 12.4883329,0 v -1.82563 h 0.17198 c 0.151896,0 0.171979,-0.006 0.171979,-0.0507 0,-0.10017 -0.03032,-0.13446 -0.11889,-0.13446 -0.07618,0 -0.08819,-0.01 -0.09842,-0.0794 -0.0064,-0.0437 -0.01074,-0.0804 -0.0096,-0.0816 0.0011,-10e-4 0.716407,-0.0883 1.589532,-0.19348 l 1.5875,-0.19126 -0.003,-0.0976 c -0.0028,-0.0907 0.0024,-0.0976 0.07359,-0.0976 0.04213,0 0.08285,-0.0163 0.09048,-0.0361 0.0076,-0.0199 -0.09998,-0.99322 -0.239126,-2.16297 -0.139148,-1.16976 -0.25292,-2.14842 -0.252826,-2.17481 1.33e-4,-0.0382 0.01776,-0.0463 0.08616,-0.0397 0.07581,0.007 0.08698,0.0186 0.09435,0.0951 0.008,0.0836 0.01178,0.0862 0.09922,0.0698 0.04997,-0.009 0.09177,-0.0127 0.09287,-0.007 0.0011,0.005 0.02194,0.15839 0.0463,0.34029 l 0.04429,0.33073 0.109448,0.008 0.109448,0.008 0.01431,1.09004 c 0.01,0.75822 0.02641,1.17459 0.05404,1.36784 0.02185,0.1528 0.04057,0.28079 0.0416,0.28443 0.001,0.004 0.37097,0.007 0.822085,0.007 h 0.820208 v 0.44979 0.4498 h -0.767287 c -0.493889,0 -0.767291,0.009 -0.767291,0.0265 0,0.0146 -0.0426,0.0265 -0.09467,0.0265 -0.09331,0 -0.09455,0.001 -0.08599,0.0992 0.0083,0.0954 0.0052,0.0996 -0.08049,0.10775 l -0.08917,0.009 0.01253,0.13037 c 0.0091,0.0943 0.0032,0.13038 -0.02107,0.13038 -0.05039,0 -2.479149,0.28993 -2.525088,0.30143 -0.02183,0.005 -0.01311,0.0113 0.01937,0.013 l 0.05906,0.003 0.0071,0.63921 0.0071,0.6392 0.528464,-0.6392 0.528464,-0.63921 h 0.646418 c 0.613196,0 0.644368,0.002 0.606522,0.0463 -0.02194,0.0255 -0.299065,0.34396 -0.615828,0.70776 -0.316764,0.36381 -0.581434,0.67558 -0.588157,0.69284 -0.0067,0.0173 0.280462,0.51553 0.638187,1.10728 0.357725,0.59175 0.650409,1.08088 0.650409,1.08697 0,0.006 -0.281645,0.008 -0.625879,0.004 l -0.625878,-0.007 -0.385714,-0.66807 c -0.212143,-0.36744 -0.393261,-0.66807 -0.402485,-0.66807 -0.0092,0 -0.09574,0.0915 -0.192261,0.20323 l -0.175491,0.20323 v 0.47145 0.47146 h -0.529177 -0.529167 z m -0.07937,-2.22034 c 0,-0.10805 -0.0282,-0.13653 -0.118456,-0.11959 -0.07201,0.0135 -0.08819,0.007 -0.100287,-0.0391 -0.01431,-0.0547 -0.02259,-0.0552 -1.048779,-0.0552 h -1.034352 v -1.8124 -1.81239 h 1.455208 1.455209 v 0.44945 0.44945 l -0.932657,0.007 -0.932656,0.007 v 0.21167 0.21166 l 0.870476,0.007 c 0.718269,0.006 0.875566,0.0136 0.899584,0.0449 0.0229,0.0298 0.06427,0.0336 0.193965,0.0178 0.09067,-0.0111 0.172911,-0.0282 0.182751,-0.038 0.0098,-0.01 -0.03511,-0.46449 -0.09988,-1.01033 l -0.117771,-0.99244 h 0.08665 c 0.0685,0 0.08929,0.0125 0.09922,0.0595 0.0115,0.0544 0.22709,1.86313 0.226723,1.90206 -7.9e-5,0.009 -0.04301,0.0249 -0.09539,0.0348 -0.09146,0.0172 -0.09457,0.0214 -0.07855,0.10677 l 0.01668,0.0889 -0.139728,0.0172 c -0.07685,0.009 -0.300464,0.0372 -0.496917,0.0615 l -0.357187,0.0443 0.0079,0.12568 c 0.0069,0.11005 0.0015,0.12568 -0.04414,0.12568 -0.103857,0 -0.132264,0.0269 -0.120745,0.11451 0.0061,0.0462 0.04697,0.39944 0.09089,0.78507 0.108484,0.95252 0.0906,0.87313 0.196672,0.87313 0.0728,0 0.09154,0.012 0.105444,0.0674 0.02262,0.0901 9.39e-4,0.11784 -0.09211,0.11784 -0.05907,0 -0.07781,-0.0122 -0.07781,-0.0507 z m -0.354539,-1.33149 c -0.01,-0.11996 -0.02751,-0.22743 -0.0389,-0.23882 -0.01139,-0.0114 -0.210297,-0.0174 -0.442021,-0.0134 l -0.421315,0.007 -0.0079,0.19596 c -0.0043,0.10778 -0.0017,0.21196 0.0058,0.23151 0.01069,0.0279 0.112053,0.0356 0.468068,0.0356 h 0.454426 z m -4.870981,1.16872 c -0.246879,-0.0335 -0.564878,-0.11696 -0.763876,-0.20047 -0.211453,-0.0887 -0.5193532,-0.26871 -0.5193532,-0.30356 0,-0.0298 0.4934322,-0.79053 0.5127382,-0.79053 0.0065,0 0.07515,0.0417 0.15256,0.0927 0.446212,0.29387 1.182555,0.421 1.496939,0.25845 0.168246,-0.087 0.143498,-0.24014 -0.05543,-0.34301 -0.04187,-0.0216 -0.305838,-0.0911 -0.586598,-0.15424 -0.604206,-0.13597 -0.841408,-0.23424 -1.056538,-0.4377 -0.08288,-0.0784 -0.177107,-0.20195 -0.218365,-0.28636 -0.06573,-0.13447 -0.07257,-0.17593 -0.07257,-0.43952 0,-0.26575 0.0065,-0.30437 0.0749,-0.44443 0.251335,-0.51474 0.937499,-0.78641 1.789827,-0.70863 0.169977,0.0155 0.422834,0.0571 0.561903,0.0923 0.262077,0.0665 0.734386,0.26833 0.734386,0.31385 0,0.0143 -0.04598,0.11079 -0.102182,0.21445 -0.0562,0.10365 -0.151622,0.27954 -0.212049,0.39085 l -0.109867,0.20239 -0.179906,-0.0886 c -0.513219,-0.25284 -1.199603,-0.32771 -1.406704,-0.15344 -0.180805,0.15213 -0.05602,0.29294 0.336897,0.38013 0.715084,0.1587 0.932378,0.2194 1.133463,0.31664 0.228151,0.11032 0.406992,0.26608 0.488121,0.4251 0.12778,0.25047 0.121725,0.67487 -0.01386,0.97148 -0.133744,0.29257 -0.465484,0.53509 -0.882614,0.64521 -0.235993,0.0623 -0.808801,0.0867 -1.101819,0.0469 z m -9.4059375,-1.86521 v -1.81419 l 1.1178646,0.01 c 0.9894382,0.009 1.1345828,0.0154 1.2633854,0.0577 0.2386177,0.0784 0.383775,0.16441 0.4998707,0.2963 0.1505767,0.17107 0.1971019,0.34125 0.1827935,0.66865 -0.011794,0.26984 -0.052332,0.38639 -0.1922304,0.55265 l -0.067721,0.0805 0.1548235,0.15482 c 0.2110219,0.21103 0.2516894,0.336 0.238115,0.73178 -0.0086,0.25078 -0.020751,0.31852 -0.080055,0.44637 -0.1384945,0.29856 -0.4384556,0.50716 -0.8469288,0.58896 -0.1629656,0.0326 -0.4114655,0.0408 -1.2369271,0.0408 H 1.8450045 Z m 2.0288237,0.82934 c 0.086841,-0.0869 0.097162,-0.22822 0.022681,-0.31052 -0.079471,-0.0878 -0.21467,-0.11039 -0.6095259,-0.10177 l -0.3704167,0.008 -0.0078,0.20933 c -0.00429,0.11513 -0.00138,0.22606 0.00647,0.24652 0.011648,0.0303 0.094491,0.0356 0.450451,0.0288 0.4346292,-0.008 0.4364339,-0.009 0.5081466,-0.0804 z m -0.1082397,-1.35157 c 0.082657,-0.0962 0.082895,-0.21334 6.006e-4,-0.29563 -0.08224,-0.0822 -0.1766674,-0.0974 -0.5453521,-0.0879 l -0.3042708,0.008 -0.00786,0.19596 c -0.00432,0.10778 -0.00138,0.21284 0.00653,0.23347 0.011723,0.0305 0.08596,0.0359 0.4004722,0.0289 0.3857477,-0.009 0.3861367,-0.009 0.4498727,-0.0828 z m 1.810041,2.23676 c 0,-0.0111 0.1381726,-0.39513 0.3070503,-0.85328 0.1688777,-0.45815 0.3289707,-0.89551 0.3557624,-0.9719 l 0.048712,-0.13891 h -0.07795 c -0.068972,0 -0.07795,0.009 -0.07795,0.0794 0,0.0764 -0.00441,0.0794 -0.1190625,0.0794 -0.1146527,0 -0.1190625,-0.003 -0.1190625,-0.0794 0,-0.0764 0.00441,-0.0794 0.1190625,-0.0794 h 0.1190625 v -0.14552 -0.14552 h 0.1058333 c 0.091615,0 0.1060596,0.008 0.1075177,0.0595 0.00161,0.0568 0.1783398,-0.35462 0.1818397,-0.42333 9.26e-4,-0.0182 -0.028081,-0.0331 -0.064462,-0.0331 -0.063771,0 -0.066146,-0.006 -0.066146,-0.17198 v -0.17197 h -0.079375 -0.079375 v -0.30428 -0.30427 h 0.079375 0.079375 v -0.19843 -0.19844 h 0.092604 c 0.088194,0 0.092604,-0.004 0.092604,-0.0926 0,-0.0904 0.00252,-0.0926 0.1058333,-0.0926 h 0.1058333 v -0.14552 -0.14552 h 0.092604 c 0.085255,0 0.092604,-0.006 0.092604,-0.0794 v -0.0794 h 0.2248958 0.2248958 v -0.0926 -0.0926 h 0.2778125 0.2778125 v 0.0926 0.0926 H 8.208232 8.4331278 v 0.0794 c 0,0.0731 0.00735,0.0794 0.092604,0.0794 h 0.092604 v 0.14552 c 0,0.14405 8.017e-4,0.14552 0.079375,0.14552 0.073075,0 0.079375,0.007 0.079375,0.0926 0,0.0921 6.297e-4,0.0926 0.1190625,0.0926 h 0.1190625 v 0.19844 0.19843 h 0.079375 0.079375 v 0.30427 0.30428 h -0.079375 -0.079375 v 0.17197 0.17198 H 8.8961483 8.7770858 v 0.19844 0.19844 h -0.079375 c -0.065026,0 -0.079375,0.0109 -0.079375,0.0604 0,0.0445 0.6204995,1.76772 0.78089,2.16868 0.01727,0.0432 -0.017322,0.0463 -0.5119437,0.0463 H 8.3568169 l -0.093728,-0.16537 c -0.051551,-0.091 -0.093912,-0.14453 -0.094136,-0.11906 -3.096e-4,0.0352 -0.022612,0.0463 -0.093012,0.0463 -0.085255,0 -0.092604,0.006 -0.092604,0.0794 v 0.0794 H 7.7055244 7.4277119 v -0.0794 c 0,-0.0764 -0.00441,-0.0794 -0.1190625,-0.0794 H 7.1895869 v -0.11906 -0.11906 h 0.4907418 0.4907415 l -0.00788,-0.16537 -0.00788,-0.16536 -0.4828646,-0.007 -0.4828646,-0.007 v 0.10511 0.10511 l -0.1517205,0.008 -0.1517203,0.008 -0.093019,0.29758 -0.093019,0.29759 -0.5622396,8e-5 c -0.3092318,5e-5 -0.5622396,-0.009 -0.5622396,-0.0202 z m 2.5664583,-1.23649 v -0.17197 H 7.679067 7.2160462 v 0.17197 0.17198 H 7.679067 8.1420878 Z m -0.555625,-1.16416 v -0.59531 H 7.440942 c -0.1440508,0 -0.1455208,-8.1e-4 -0.1455208,-0.0794 v -0.0794 h 0.3704166 0.3704167 v 0.0794 c 0,0.0776 -0.00294,0.0794 -0.1322917,0.0794 H 7.7716712 v 0.59531 0.59531 h 0.1984375 0.1984375 v -0.0794 c 0,-0.0776 0.00294,-0.0794 0.1322916,-0.0794 h 0.1322917 v -0.14552 -0.14552 h 0.092604 0.092604 v -0.19844 -0.19844 h 0.079375 0.079375 v -0.17198 -0.17197 H 8.89615 9.0152125 v -0.30428 -0.30427 H 8.89615 8.7770875 v -0.19843 -0.19844 h -0.079375 c -0.073075,0 -0.079375,-0.007 -0.079375,-0.0926 0,-0.0882 -0.00441,-0.0926 -0.092604,-0.0926 h -0.092604 v -0.14552 -0.14552 H 8.2082337 7.9833378 v -0.0794 -0.0794 H 7.7055253 7.4277128 v 0.0794 0.0794 H 7.202817 6.9779212 v 0.14552 0.14552 h -0.092604 c -0.088194,0 -0.092604,0.004 -0.092604,0.0926 0,0.0904 -0.00252,0.0926 -0.1058333,0.0926 H 6.5810466 v 0.19844 0.19843 h -0.092604 -0.092604 v 0.30427 0.30428 h 0.094775 0.094775 l -0.00879,0.17859 -0.00879,0.17859 0.1124479,-0.009 0.1124479,-0.009 v 0.20111 0.2011 h 0.091221 0.091221 l 0.008,0.1389 0.008,0.13891 0.099219,0.008 c 0.090289,0.007 0.099219,0.0152 0.099219,0.086 v 0.0778 h 0.1984375 0.1984375 z m -0.79375,-1.32292 c 0,-0.11843 4.895e-4,-0.11906 0.092604,-0.11906 0.085255,0 0.092604,-0.006 0.092604,-0.0794 0,-0.075 0.00588,-0.0794 0.1058333,-0.0794 0.1033134,0 0.1058333,-0.002 0.1058333,-0.0926 0,-0.0921 6.297e-4,-0.0926 0.1190625,-0.0926 0.1184326,0 0.1190625,4.9e-4 0.1190625,0.0926 0,0.0921 -6.297e-4,0.0926 -0.1190625,0.0926 -0.1146527,0 -0.1190625,0.003 -0.1190625,0.0794 0,0.075 -0.00588,0.0794 -0.1058333,0.0794 H 6.9779208 v 0.11906 c 0,0.11843 -4.895e-4,0.11906 -0.092604,0.11906 -0.092114,0 -0.092604,-6.3e-4 -0.092604,-0.11906 z m 10.6048532,3.31391 c -0.0082,-0.0849 -0.0099,-0.0859 -0.130648,-0.0773 l -0.122358,0.009 -0.01864,-0.12429 c -0.01861,-0.1241 -0.01877,-0.12426 -0.109153,-0.1096 -0.06038,0.01 -0.09063,0.004 -0.09088,-0.0167 -2.11e-4,-0.0173 -0.0071,-0.0567 -0.01544,-0.0876 -0.01285,-0.0479 -6.72e-4,-0.0589 0.08243,-0.0745 0.09235,-0.0173 0.09696,-0.023 0.0871,-0.10747 -0.01032,-0.0884 -0.0093,-0.0893 0.117082,-0.10671 0.12714,-0.0175 0.127447,-0.0178 0.111293,-0.10388 -0.01403,-0.0748 -0.0079,-0.0886 0.04559,-0.10289 0.114767,-0.0307 0.123272,-0.0215 0.142177,0.15508 0.01015,0.0948 0.0289,0.1788 0.04167,0.18669 0.02451,0.0152 0.953851,-0.0914 0.97518,-0.11185 0.0068,-0.007 0.0089,-0.0529 0.0046,-0.10309 -0.0076,-0.0886 -0.0051,-0.0912 0.08792,-0.0912 0.09442,0 0.09567,-10e-4 0.08802,-0.0992 -0.0074,-0.0945 -0.0037,-0.0996 0.07823,-0.10751 0.04729,-0.005 0.08634,-0.0165 0.08678,-0.0265 4.34e-4,-0.01 -0.0611,-0.5401 -0.136742,-1.17802 -0.116821,-0.9852 -0.131881,-1.16343 -0.100009,-1.18361 0.06647,-0.0421 0.128634,-0.0268 0.142145,0.035 0.0072,0.0328 0.07331,0.57746 0.146994,1.21047 0.07368,0.63302 0.140431,1.18368 0.14833,1.2237 0.01352,0.0685 0.0088,0.0728 -0.08034,0.0728 -0.09285,0 -0.09471,0.002 -0.09471,0.10583 0,0.1 -0.0044,0.10584 -0.07937,0.10584 -0.07497,0 -0.07938,0.006 -0.07938,0.10583 0,0.0918 -0.0079,0.10597 -0.05953,0.10684 -0.113951,0.002 -1.070626,0.1235 -1.096191,0.1393 -0.0156,0.01 -0.01788,0.0711 -0.0058,0.15608 0.03861,0.27136 0.03525,0.2857 -0.06712,0.2857 -0.08325,0 -0.09163,-0.007 -0.09922,-0.086 z m -7.8796448,-1.3163 c 0,-0.0764 -0.00441,-0.0794 -0.1190625,-0.0794 -0.1146527,0 -0.1190625,-0.003 -0.1190625,-0.0794 0,-0.0706 -0.00882,-0.0794 -0.079375,-0.0794 -0.076435,0 -0.079375,-0.004 -0.079375,-0.11906 0,-0.11466 0.00294,-0.11906 0.079375,-0.11906 0.076435,0 0.079375,0.004 0.079375,0.11906 v 0.11906 h 0.1190625 c 0.1146527,0 0.1190625,0.003 0.1190625,0.0794 0,0.0706 0.00882,0.0794 0.079375,0.0794 0.070556,0 0.079375,0.009 0.079375,0.0794 0,0.0705 -0.00882,0.0794 -0.079375,0.0794 -0.070556,0 -0.079375,-0.009 -0.079375,-0.0794 z m -4.1275,-1.64042 v -0.0794 h 0.2778125 0.2778125 v 0.0794 0.0794 H 5.6682337 5.3904212 Z m 4.0216666,0 v -0.0794 H 9.7163587 10.02063 v 0.0794 0.0794 H 9.7163587 9.4120878 Z m 7.9110422,-0.91114 c 0,-0.0904 0.0038,-0.0943 0.09428,-0.0943 0.09043,0 0.09394,0.004 0.08599,0.086 -0.0073,0.0756 -0.01867,0.087 -0.09428,0.0943 -0.08248,0.008 -0.08599,0.004 -0.08599,-0.086 z m 0.174809,-0.16259 c -0.05087,-0.13257 -0.07905,-0.12525 0.943055,-0.24484 0.527513,-0.0617 0.979951,-0.11177 1.005417,-0.1112 0.07517,0.002 0.06331,0.15517 -0.01323,0.17133 -0.05454,0.0115 -1.863158,0.22709 -1.902169,0.22672 -0.0094,-8e-5 -0.02424,-0.019 -0.03307,-0.042 z M 6.2900045,312.72155 v -0.11906 H 6.170942 c -0.1146527,0 -0.1190625,-0.003 -0.1190625,-0.0794 0,-0.0706 -0.00882,-0.0794 -0.079375,-0.0794 -0.073075,0 -0.079375,-0.007 -0.079375,-0.0926 0,-0.0852 0.0063,-0.0926 0.079375,-0.0926 0.073075,0 0.079375,0.007 0.079375,0.0926 0,0.0921 6.297e-4,0.0926 0.1190625,0.0926 0.1146527,0 0.1190625,0.003 0.1190625,0.0794 0,0.0706 0.00882,0.0794 0.079375,0.0794 0.076435,0 0.079375,0.004 0.079375,0.11906 0,0.11465 -0.00294,0.11906 -0.079375,0.11906 -0.076435,0 -0.079375,-0.004 -0.079375,-0.11906 z m 2.778125,0 c 0,-0.11465 0.00294,-0.11906 0.079375,-0.11906 0.070556,0 0.079375,-0.009 0.079375,-0.0794 0,-0.0731 0.00735,-0.0794 0.092604,-0.0794 0.088194,0 0.092604,-0.004 0.092604,-0.0926 0,-0.0904 0.00252,-0.0926 0.1058334,-0.0926 0.1033134,0 0.1058333,0.002 0.1058333,0.0926 0,0.0904 -0.00252,0.0926 -0.1058333,0.0926 -0.099954,0 -0.1058334,0.004 -0.1058334,0.0794 0,0.0731 -0.00735,0.0794 -0.092604,0.0794 -0.092114,0 -0.092604,6.3e-4 -0.092604,0.11906 0,0.11465 -0.00294,0.11906 -0.079375,0.11906 -0.076435,0 -0.079375,-0.004 -0.079375,-0.11906 z m -1.4816667,-0.64823 v -0.3175 h 0.092604 0.092604 v 0.3175 0.3175 h -0.092604 -0.092604 z"
         id="path28"
         inkscape:connector-curvature="0" />
    </g>
  </g>
</svg>
