<?xml version="1.0" encoding="UTF-8" standalone="no"?>
<!-- Created with Inkscape (http://www.inkscape.org/) -->

<svg
   xmlns:dc="http://purl.org/dc/elements/1.1/"
   xmlns:cc="http://creativecommons.org/ns#"
   xmlns:rdf="http://www.w3.org/1999/02/22-rdf-syntax-ns#"
   xmlns:svg="http://www.w3.org/2000/svg"
   xmlns="http://www.w3.org/2000/svg"
   xmlns:sodipodi="http://sodipodi.sourceforge.net/DTD/sodipodi-0.dtd"
   xmlns:inkscape="http://www.inkscape.org/namespaces/inkscape"
   width="420mm"
   height="297mm"
   viewBox="0 0 41.999997 29.7"
   version="1.1"
   id="svg8"
   inkscape:version="0.92.3 (2405546, 2018-03-11)"
   sodipodi:docname="pitching_mic_wob.svg">
  <defs
     id="defs2" />
  <sodipodi:namedview
     id="base"
     pagecolor="#ffffff"
     bordercolor="#666666"
     borderopacity="1.0"
     inkscape:pageopacity="0"
     inkscape:pageshadow="2"
     inkscape:zoom="0.50000001"
     inkscape:cx="1136.5716"
     inkscape:cy="378.2042"
     inkscape:document-units="cm"
     inkscape:current-layer="layer1"
     showgrid="true"
     scale-x="1"
     showguides="true"
     borderlayer="false"
     showborder="true"
     inkscape:showpageshadow="true"
     inkscape:window-width="1920"
     inkscape:window-height="986"
     inkscape:window-x="-11"
     inkscape:window-y="-11"
     inkscape:window-maximized="1"
     units="mm" />
  <metadata
     id="metadata5">
    <rdf:RDF>
      <cc:Work
         rdf:about="">
        <dc:format>image/svg+xml</dc:format>
        <dc:type
           rdf:resource="http://purl.org/dc/dcmitype/StillImage" />
        <dc:title></dc:title>
      </cc:Work>
    </rdf:RDF>
  </metadata>
  <g
     inkscape:label="Ebene 1"
     inkscape:groupmode="layer"
     id="layer1"
     transform="translate(0,-260.28)">
    <rect
       y="260.28"
       x="1.1537094e-007"
       height="29.699999"
       width="42"
       id="rect853"
       style="opacity:1;vector-effect:none;fill:#000000;fill-opacity:1;stroke:none;stroke-width:0.14239371;stroke-linecap:butt;stroke-linejoin:miter;stroke-miterlimit:4;stroke-dasharray:none;stroke-dashoffset:0;stroke-opacity:0.27096779" />
    <flowRoot
       style="font-style:normal;font-weight:normal;font-size:40px;line-height:1.25;font-family:sans-serif;letter-spacing:0px;word-spacing:0px;fill:#000000;fill-opacity:1;stroke:none"
       id="flowRoot1291"
       xml:space="preserve"
       transform="matrix(2.0178592,0,0,2.0178592,-4.1750468,-365.18553)"><flowRegion
         id="flowRegion1293"><rect
           y="516.51971"
           x="110"
           height="314"
           width="300"
           id="rect1295" /></flowRegion><flowPara
         id="flowPara1297" /></flowRoot>    <flowRoot
       style="font-style:normal;font-weight:normal;font-size:40px;line-height:1.25;font-family:sans-serif;letter-spacing:0px;word-spacing:0px;fill:#000000;fill-opacity:1;stroke:none"
       id="flowRoot1299"
       xml:space="preserve"
       transform="matrix(2.0178592,0,0,2.0178592,-4.1750468,-365.18553)"><flowRegion
         id="flowRegion1301"><rect
           y="504.51971"
           x="108"
           height="330"
           width="302"
           id="rect1303" /></flowRegion><flowPara
         id="flowPara1305" /></flowRoot>    <path
       inkscape:connector-curvature="0"
       id="path28"
       d="m 6.341763,283.72302 c -0.3117404,-0.15658 -0.5711905,-0.28654 -0.5765569,-0.28876 -0.00929,-0.004 0.040938,-0.12132 0.084394,-0.19754 0.019157,-0.0336 0.021855,-0.0342 0.055637,-0.0146 0.030918,0.0181 0.03653,0.0179 0.043802,-0.002 0.00801,-0.0224 0.00206,-0.0253 -0.1779456,-0.09 -0.1024339,-0.0367 -0.1853226,-0.0694 -0.1842025,-0.0726 0.00107,-0.002 0.2532211,-0.3056 0.5602215,-0.67217 0.3069979,-0.36658 0.5599385,-0.6714 0.5620861,-0.67739 0.00206,-0.006 -0.013883,-0.0172 -0.035589,-0.025 -0.045667,-0.0164 -0.047499,-0.007 0.030307,-0.16117 l 0.054374,-0.10793 0.043447,0.02 c 0.023894,0.011 0.2886263,0.14189 0.5882307,0.29107 0.2996012,0.1492 0.5507622,0.27345 0.5581368,0.2761 0.010292,0.004 3.763e-4,0.0305 -0.042605,0.11533 -0.03081,0.0607 -0.059087,0.11828 -0.062842,0.12781 -0.00512,0.0131 -0.015905,0.0129 -0.043604,-4.9e-4 -0.045345,-0.0226 -0.039865,-0.0296 -0.1472828,0.18983 l -0.083573,0.1707 -0.043191,-0.0155 c -0.040195,-0.0146 -0.043958,-0.0134 -0.055035,0.0174 -0.02089,0.0581 -0.034912,0.0664 -0.073655,0.0438 -0.033402,-0.0196 -0.035606,-0.019 -0.05208,0.0159 -0.015822,0.0336 -0.020692,0.0357 -0.060787,0.0248 -0.03809,-0.0102 -0.044891,-0.007 -0.054003,0.0173 -0.00578,0.0159 -0.0088,0.23172 -0.00669,0.47951 0.00206,0.24781 0.00264,0.45375 0.00124,0.45764 -0.00124,0.004 -0.035465,-0.005 -0.075702,-0.0192 -0.081677,-0.0293 -0.073894,-0.0338 -0.1289195,0.0733 -0.029432,0.0573 -0.025149,0.0747 0.022796,0.0923 0.023778,0.009 0.024596,0.0132 0.00702,0.0441 -0.010796,0.019 -0.036241,0.07 -0.056603,0.1135 -0.03346,0.0716 -0.039254,0.0782 -0.060523,0.0693 -0.013024,-0.005 -0.278581,-0.1379 -0.5903215,-0.29449 z m 0.5209719,0.11081 c 0.00776,-0.0213 0.00929,-0.0405 0.00355,-0.0426 -0.00578,-0.002 -0.1931799,-0.0953 -0.416529,-0.20707 -0.223345,-0.11183 -0.4205907,-0.20851 -0.438316,-0.21487 -0.027138,-0.01 -0.035383,-0.007 -0.052187,0.0217 -0.010977,0.0181 -0.019074,0.0349 -0.017993,0.0371 0.0038,0.009 0.8876462,0.44752 0.8974654,0.44609 0.00553,-4.8e-4 0.01635,-0.019 0.024034,-0.0403 z m 0.067621,-0.13747 c 0.00792,-0.0129 0.039221,-0.0748 0.069553,-0.13749 0.030332,-0.0627 0.062801,-0.12703 0.072152,-0.14295 0.015987,-0.0272 0.014576,-0.0298 -0.023382,-0.0434 -0.039617,-0.0144 -0.040104,-0.0154 -0.024175,-0.0598 0.015335,-0.0428 0.014361,-0.0457 -0.017621,-0.0573 -0.031982,-0.0115 -0.03294,-0.0147 -0.017646,-0.0573 0.015591,-0.0433 0.014774,-0.0457 -0.020386,-0.0584 -0.05104,-0.0186 -0.062636,-0.038 -0.044487,-0.0744 0.013511,-0.0272 0.011497,-0.0333 -0.016276,-0.049 -0.027856,-0.0158 -0.030332,-0.0234 -0.020073,-0.0616 0.010441,-0.039 0.0084,-0.0448 -0.01961,-0.0547 -0.017209,-0.006 -0.032882,-0.0147 -0.034871,-0.019 -0.00206,-0.004 0.021666,-0.0573 0.052484,-0.11814 0.030827,-0.0607 0.058782,-0.1174 0.062116,-0.12574 0.00454,-0.0111 0.015508,-0.01 0.042357,0.006 0.034962,0.0206 0.037091,0.02 0.058121,-0.0158 0.019776,-0.0338 0.025355,-0.036 0.059178,-0.0238 0.032519,0.0116 0.039947,0.01 0.057403,-0.0185 0.019256,-0.0307 0.022095,-0.031 0.071426,-0.01 l 0.051321,0.0224 0.023778,-0.0485 0.023778,-0.0485 0.040946,0.0191 c 0.040492,0.019 0.041103,0.0186 0.055843,-0.0224 0.014675,-0.0409 0.015294,-0.0411 0.055835,-0.0225 l 0.040946,0.0191 0.076147,-0.15015 c 0.041879,-0.0826 0.074884,-0.15279 0.073349,-0.15606 -0.00784,-0.0165 -0.8869644,-0.44561 -0.8969364,-0.43774 -0.00603,0.005 -0.040723,0.0706 -0.076948,0.14627 -0.036217,0.0757 -0.067093,0.13956 -0.06862,0.14207 -0.00132,0.002 0.012207,0.0147 0.030513,0.0273 0.02949,0.0201 0.031669,0.0272 0.019189,0.0617 -0.011167,0.0311 -0.00968,0.0408 0.00759,0.0471 0.044115,0.0158 0.048803,0.0288 0.027006,0.0753 -0.024133,0.0513 -0.0164,0.0683 0.040294,0.089 0.036464,0.0133 0.037009,0.0147 0.018579,0.0546 -0.018018,0.0389 -0.017233,0.0418 0.015863,0.0574 0.031562,0.0147 0.033691,0.0205 0.023283,0.0593 -0.010267,0.0384 -0.00801,0.0447 0.021649,0.0588 l 0.033146,0.0158 -0.055588,0.11005 c -0.030571,0.0605 -0.05794,0.11602 -0.060837,0.12334 -0.00297,0.007 -0.024876,0.007 -0.048836,4.8e-4 -0.039609,-0.011 -0.045073,-0.009 -0.060135,0.0233 -0.015475,0.0328 -0.018628,0.0338 -0.048391,0.0158 -0.035325,-0.0213 -0.056776,-0.0121 -0.072623,0.031 -0.0088,0.0238 -0.013651,0.024 -0.061893,0.002 -0.05203,-0.0226 -0.052559,-0.0223 -0.069462,0.0135 -0.016301,0.0346 -0.018884,0.0352 -0.057321,0.0177 -0.03828,-0.0177 -0.041119,-0.0168 -0.056974,0.0169 -0.015591,0.033 -0.019553,0.0344 -0.058996,0.0201 l -0.042275,-0.0153 -0.080926,0.16368 c -0.044503,0.09 -0.079977,0.16571 -0.078805,0.16817 0.00116,0.002 0.037636,0.0213 0.081041,0.0419 l 0.078937,0.0376 0.015162,-0.0422 c 0.012158,-0.0338 0.018207,-0.0396 0.030555,-0.0289 0.00851,0.007 0.030216,0.0186 0.048324,0.0252 0.030893,0.011 0.031867,0.0149 0.016705,0.057 -0.015847,0.0441 -0.015286,0.0454 0.023283,0.0593 0.023985,0.009 0.041565,0.009 0.044742,1.4e-4 0.00297,-0.007 0.01219,-0.024 0.020716,-0.0364 0.013305,-0.0192 0.010152,-0.0254 -0.0224,-0.0445 -0.032899,-0.0194 -0.03639,-0.0263 -0.02642,-0.0541 0.013841,-0.0385 0.023514,-0.0417 0.061167,-0.0193 0.024455,0.0146 0.026832,0.0225 0.01555,0.0541 -0.013445,0.0375 -0.00355,0.056 0.037884,0.0709 0.014436,0.005 0.026824,-0.004 0.042382,-0.0301 0.019412,-0.033 0.025396,-0.0357 0.051122,-0.0232 0.023935,0.0119 0.027468,0.021 0.019693,0.0516 -0.00899,0.0353 -0.011572,0.0366 -0.053698,0.0253 -0.04031,-0.0107 -0.045741,-0.009 -0.06054,0.0224 -0.014609,0.0309 -0.012818,0.0366 0.016804,0.0552 0.036538,0.0229 0.0569,0.0152 0.072788,-0.0282 0.00636,-0.0174 0.01607,-0.0229 0.030943,-0.0175 0.044751,0.016 0.051849,0.0315 0.031545,0.068 -0.018678,0.0337 -0.01791,0.0359 0.019941,0.0547 0.046921,0.0233 0.050322,0.0224 0.065525,-0.0199 0.011283,-0.0315 0.013478,-0.0319 0.058443,-0.0119 0.045188,0.0201 0.046352,0.0222 0.035218,0.0636 -0.012438,0.0463 -0.00702,0.0515 0.098801,0.0948 0.03469,0.0144 0.043736,0.0133 0.055885,-0.007 z m -0.3016207,-0.21681 c -0.00124,-0.006 0.00545,-0.0234 0.014832,-0.0393 0.014733,-0.0249 0.022441,-0.0269 0.056553,-0.0146 0.035465,0.0127 0.037884,0.0165 0.023589,0.0371 -0.0088,0.0126 -0.01829,0.0293 -0.021162,0.037 -0.00553,0.0152 -0.070073,-0.002 -0.073828,-0.0201 z m -0.035804,-0.11718 c -0.00132,-0.007 0.00784,-0.0322 0.020774,-0.0557 0.022639,-0.0411 0.024736,-0.0421 0.05643,-0.0233 0.018042,0.011 0.033179,0.0201 0.033485,0.021 2.468e-4,4.8e-4 -0.00948,0.0224 -0.021682,0.0476 -0.020403,0.0424 -0.024917,0.0451 -0.054267,0.0347 -0.017605,-0.007 -0.033245,-0.0173 -0.034747,-0.0244 z M 6.4449827,283.2585 c 0.019354,-0.0539 0.0353,-0.0649 0.073927,-0.0509 0.035218,0.0126 0.035367,0.0132 0.013263,0.0621 -0.02169,0.048 -0.023316,0.0489 -0.060672,0.0356 -0.03488,-0.0125 -0.037298,-0.0168 -0.026527,-0.0467 z m 0.1788592,-0.0987 c -0.017927,-0.0108 -0.020857,-0.0217 -0.012001,-0.0464 0.014015,-0.0389 0.023605,-0.042 0.061332,-0.0199 0.024678,0.0147 0.026874,0.0226 0.015121,0.0551 -0.013915,0.0388 -0.016854,0.0393 -0.064468,0.011 z m 0.3294418,-0.63499 c -0.033336,-0.0158 -0.034838,-0.0196 -0.019668,-0.0516 0.011852,-0.025 0.02292,-0.0333 0.039997,-0.0296 0.03677,0.007 0.048052,0.0324 0.031124,0.0668 -0.013965,0.0284 -0.018802,0.0297 -0.051461,0.0144 z m 0.1026352,-0.10436 0.02642,-0.0529 -0.036225,-0.0213 c -0.03157,-0.0185 -0.03469,-0.0255 -0.024216,-0.0546 0.010944,-0.0305 0.015319,-0.0322 0.050825,-0.0194 0.03672,0.0132 0.038247,0.0163 0.027113,0.0575 -0.010598,0.0394 -0.00851,0.0452 0.022375,0.0598 0.031529,0.0146 0.03582,0.0131 0.056636,-0.0224 0.019437,-0.0331 0.02566,-0.0364 0.044858,-0.0229 0.01219,0.009 0.026081,0.017 0.030695,0.0187 0.00462,0.002 0.00231,0.0201 -0.0052,0.0411 -0.013156,0.0366 -0.01517,0.0375 -0.055513,0.0215 -0.041507,-0.0163 -0.04206,-0.016 -0.062578,0.0303 -0.020213,0.0456 -0.021649,0.0465 -0.061142,0.0322 l -0.040418,-0.0146 z m -0.1434779,-0.0123 c -0.028475,-0.0141 -0.029085,-0.0177 -0.00996,-0.0609 0.019057,-0.043 0.022829,-0.0452 0.058336,-0.0363 0.036836,0.01 0.037446,0.0111 0.022318,0.0527 -0.019949,0.0547 -0.033146,0.0632 -0.070683,0.0446 z M 6.869514,282.2192 c 0.01385,-0.0386 0.016078,-0.0396 0.05468,-0.0258 0.038577,0.0138 0.03946,0.0161 0.023498,0.0498 -0.014708,0.0311 -0.021302,0.0342 -0.054672,0.0258 -0.036406,-0.01 -0.037298,-0.0114 -0.023498,-0.0498 z m -0.1978621,0.39328 c 0.025594,-0.0504 0.04598,-0.0961 0.045328,-0.10161 -6.297e-4,-0.006 -0.015087,-0.0149 -0.032065,-0.0211 -0.028706,-0.0102 -0.035366,-0.006 -0.095117,0.0717 -0.035333,0.0456 -0.066524,0.0892 -0.069305,0.0969 -0.00355,0.01 0.011836,0.0189 0.049802,0.0298 l 0.054836,0.0158 z M 7.749425,282.0543 c 0.011093,-0.0183 0.017596,-0.0386 0.014501,-0.0447 -0.00792,-0.0159 -0.8613331,-0.43973 -0.8845379,-0.43924 -0.019189,4.3e-4 -0.050916,0.0654 -0.0353,0.0725 0.00454,0.002 0.2000658,0.10029 0.4345168,0.21838 0.2344534,0.11809 0.4317824,0.21734 0.4384991,0.22058 0.00669,0.002 0.021294,-0.009 0.032354,-0.0274 z m 0.1362016,1.84141 c -0.03724,-0.0232 -0.1056808,-0.0815 -0.1520756,-0.12965 -0.1451279,-0.15063 -0.213775,-0.35524 -0.1972729,-0.58791 0.00801,-0.11439 0.1266126,-0.44616 0.1936578,-0.54219 0.1631907,-0.23374 0.4119013,-0.35181 0.6952157,-0.33003 0.1146871,0.009 0.3439292,0.0841 0.4511551,0.14808 0.1995154,0.11911 0.3448099,0.32618 0.3721316,0.53033 0.011836,0.0886 0.0086,0.24546 -0.0052,0.25167 -0.011885,0.006 -0.4406806,-0.0845 -0.4527167,-0.095 -0.00669,-0.006 -0.00996,-0.0348 -0.00743,-0.0648 0.011605,-0.13841 -0.08053,-0.2756 -0.218411,-0.32516 -0.1355901,-0.0488 -0.2724561,-0.0104 -0.3700724,0.10357 -0.066581,0.0777 -0.1197184,0.18803 -0.1426104,0.29599 -0.036002,0.16979 -0.015071,0.29062 0.066425,0.38322 0.043158,0.0491 0.060358,0.0599 0.139522,0.0885 0.079077,0.0285 0.099373,0.0309 0.1630974,0.0207 0.083124,-0.0135 0.171157,-0.0651 0.2146416,-0.12577 0.016383,-0.0229 0.03483,-0.0444 0.040987,-0.048 0.00619,-0.004 0.1033294,0.0427 0.2159044,0.10256 0.2328027,0.12389 0.2226426,0.10863 0.1411298,0.21188 -0.1236645,0.15662 -0.2924403,0.24897 -0.4935577,0.27007 -0.070006,0.007 -0.1636141,0.007 -0.2166076,-4.9e-4 -0.1153672,-0.0169 -0.3442883,-0.0991 -0.4378966,-0.15728 z m -3.7099252,-2.23126 0.2799148,-0.77883 0.2257476,0.0811 0.2257459,0.0811 -0.1054745,0.29347 -0.1054769,0.29348 0.2708961,0.0974 0.2708961,0.0974 0.1054761,-0.29347 0.1054745,-0.29346 0.2257476,0.0811 0.2257476,0.0811 -0.2799164,0.77881 -0.2799139,0.77883 -0.2257476,-0.0811 -0.225746,-0.0811 0.1054745,-0.29348 0.1054762,-0.29347 -0.2708961,-0.0974 -0.270897,-0.0974 -0.1054753,0.29347 -0.1054737,0.29346 -0.2257459,-0.0811 -0.2257476,-0.0811 z m 5.3276211,1.91477 0.2799155,-0.77882 0.073366,0.0263 c 0.064807,0.0234 0.07429,0.0238 0.081141,0.005 0.01536,-0.0428 0.00776,-0.0621 -0.030109,-0.0757 -0.032502,-0.0117 -0.036101,-0.0177 -0.029812,-0.0489 0.00404,-0.0196 0.00776,-0.0358 0.0084,-0.0363 6.297e-4,-2.6e-4 0.319162,0.0721 0.707771,0.16117 l 0.706567,0.1618 0.01368,-0.0422 c 0.01272,-0.0392 0.01599,-0.0411 0.04636,-0.0304 0.01798,0.007 0.03785,0.006 0.04415,-4.7e-4 0.0063,-0.007 0.109632,-0.43905 0.229624,-0.95941 0.119992,-0.52037 0.221511,-0.95532 0.225596,-0.96656 0.0059,-0.0163 0.01467,-0.0171 0.04284,-0.004 0.03126,0.0146 0.03425,0.0213 0.02567,0.055 -0.0095,0.0369 -0.0082,0.0386 0.03164,0.045 0.0227,0.004 0.0411,0.009 0.04068,0.0112 -2.99e-4,0.002 -0.01492,0.071 -0.03242,0.15227 l -0.03182,0.14789 0.04546,0.0201 0.04546,0.0201 -0.161027,0.46721 c -0.111987,0.32499 -0.168828,0.50514 -0.186669,0.59181 -0.01412,0.0685 -0.02574,0.12601 -0.02586,0.12772 -1.86e-4,0.002 0.157186,0.0598 0.349634,0.12904 l 0.349908,0.12575 -0.06896,0.19189 -0.06898,0.19189 -0.32733,-0.11766 c -0.210698,-0.0758 -0.328712,-0.11379 -0.331397,-0.10632 -0.0022,0.006 -0.02223,0.005 -0.04444,-0.002 -0.03981,-0.0144 -0.04049,-0.014 -0.05189,0.0292 -0.01109,0.0421 -0.01305,0.0432 -0.05087,0.0336 l -0.03942,-0.01 -0.01464,0.0575 c -0.01057,0.0416 -0.01863,0.0562 -0.029,0.0524 -0.02149,-0.007 -1.102078,-0.25642 -1.12344,-0.25857 -0.01006,-4.8e-4 -0.0074,0.002 0.0063,0.009 l 0.02474,0.0102 -0.09498,0.27377 -0.09498,0.27378 0.323452,-0.19166 0.323455,-0.19167 0.275767,0.0991 c 0.261595,0.094 0.274585,0.0997 0.251647,0.11274 -0.01327,0.007 -0.180321,0.10088 -0.371234,0.20752 -0.190916,0.10663 -0.351628,0.19905 -0.357143,0.20539 -0.0054,0.007 0.0406,0.26292 0.102481,0.57022 0.06189,0.3073 0.111744,0.56084 0.11081,0.56344 -9.08e-4,0.002 -0.121379,-0.0399 -0.267619,-0.0942 l -0.265931,-0.0989 -0.06212,-0.34416 c -0.03416,-0.18926 -0.06534,-0.3453 -0.06927,-0.34672 -0.004,-4.9e-4 -0.054861,0.0243 -0.1131801,0.0571 l -0.1060283,0.0598 -0.072285,0.2011 -0.072285,0.20114 -0.2257517,-0.0811 -0.2257468,-0.0811 z m 0.306576,-0.95938 c 0.016565,-0.0461 0.00889,-0.0626 -0.032205,-0.0691 -0.032791,-0.005 -0.038701,-0.0105 -0.036778,-0.0321 0.00231,-0.0255 -0.00116,-0.0271 -0.4389529,-0.18434 l -0.4412632,-0.15861 0.2778885,-0.77317 0.2778844,-0.77319 0.6208027,0.22312 0.620804,0.22311 -0.06891,0.19176 -0.06891,0.19173 -0.398951,-0.14 -0.398952,-0.14002 -0.032453,0.0902 -0.032453,0.0902 0.370278,0.13645 c 0.3055,0.11269 0.371439,0.14006 0.376886,0.15709 0.0052,0.0163 0.02227,0.0242 0.08002,0.0375 0.04038,0.01 0.07809,0.0146 0.0838,0.0118 0.0057,-0.002 0.05626,-0.20355 0.112301,-0.44634 l 0.101923,-0.44142 0.03697,0.0133 c 0.02922,0.0105 0.03617,0.0191 0.0332,0.0406 -0.0035,0.0249 -0.188788,0.82963 -0.194912,0.84619 -0.0013,0.004 -0.02217,0.004 -0.04604,2.2e-4 -0.04164,-0.007 -0.04363,-0.006 -0.04987,0.0335 l -0.0065,0.0405 -0.06226,-0.014 c -0.03417,-0.007 -0.133884,-0.0302 -0.221419,-0.05 l -0.159171,-0.0357 -0.0159,0.0547 c -0.01392,0.048 -0.01863,0.0538 -0.03811,0.0469 -0.0443,-0.0158 -0.060556,-0.009 -0.069066,0.0305 -0.00454,0.0206 -0.04121,0.1776 -0.081594,0.34885 -0.099765,0.42298 -0.095214,0.38637 -0.049967,0.40264 0.031058,0.0111 0.037215,0.0191 0.034648,0.0448 -0.00421,0.0419 -0.017663,0.0503 -0.05737,0.0362 -0.02519,-0.009 -0.031331,-0.0171 -0.025429,-0.0334 z m 0.052897,-0.62239 c 0.014138,-0.0526 0.023135,-0.10124 0.020031,-0.10784 -0.00314,-0.007 -0.087053,-0.0396 -0.1865133,-0.0735 l -0.1808112,-0.0616 -0.033419,0.0824 c -0.018356,0.0453 -0.033212,0.0901 -0.033014,0.0996 2.815e-4,0.0135 0.042349,0.0324 0.1942232,0.087 l 0.1938615,0.0696 z m -2.2571934,-0.24826 c -0.100184,-0.0521 -0.2230479,-0.13651 -0.2951393,-0.20264 -0.076601,-0.0702 -0.1803597,-0.19426 -0.1750163,-0.20913 0.00454,-0.0127 0.3317107,-0.26159 0.3399469,-0.25864 0.00289,4.8e-4 0.025669,0.0293 0.050866,0.063 0.1452987,0.19378 0.439937,0.3609 0.5989786,0.33976 0.085107,-0.0113 0.098037,-0.0805 0.028945,-0.15482 -0.014568,-0.0157 -0.1165054,-0.0857 -0.2265986,-0.15575 -0.2369113,-0.15064 -0.3230362,-0.22893 -0.3836172,-0.34872 -0.023341,-0.0461 -0.044577,-0.1133 -0.049257,-0.15565 -0.00743,-0.0674 -0.00404,-0.0862 0.036431,-0.19862 0.040756,-0.11337 0.049439,-0.12886 0.1000957,-0.17812 0.1861446,-0.18104 0.5205212,-0.19174 0.8722046,-0.0278 0.07013,0.0327 0.1716299,0.0892 0.2255611,0.12551 0.1016085,0.0686 0.2721539,0.22707 0.2651731,0.24649 -0.00223,0.006 -0.036605,0.0402 -0.076469,0.0759 -0.039873,0.0357 -0.1075428,0.0961 -0.1503886,0.13424 l -0.077905,0.0696 -0.063173,-0.0654 c -0.1801757,-0.18656 -0.4615133,-0.32372 -0.5765834,-0.28114 -0.1004596,0.0371 -0.06881,0.11638 0.08544,0.21382 0.280727,0.17736 0.3641199,0.23657 0.4349947,0.30888 0.080414,0.0821 0.1328301,0.17592 0.143057,0.25619 0.016094,0.12644 -0.051543,0.30656 -0.1548645,0.41231 -0.1019147,0.1043 -0.2806229,0.15691 -0.4754577,0.13993 -0.1102293,-0.01 -0.3583341,-0.087 -0.4772363,-0.14893 z m -3.7266634,-2.23789 0.2781634,-0.77393 0.4753537,0.17565 c 0.4207226,0.15556 0.4816618,0.18054 0.5301242,0.21833 0.08978,0.07 0.1385142,0.12897 0.1678184,0.20305 0.038008,0.096 0.03176,0.17581 -0.024546,0.31329 -0.046418,0.1133 -0.08157,0.1568 -0.166743,0.20628 l -0.041227,0.024 0.042316,0.0897 c 0.057667,0.12237 0.05586,0.18192 -0.010606,0.34868 -0.042118,0.10567 -0.057692,0.13271 -0.1025923,0.17816 -0.1048596,0.10613 -0.26481,0.14914 -0.4516091,0.12141 -0.074521,-0.0111 -0.18179,-0.0456 -0.5339381,-0.17226 L 3.600769,280.28528 Z m 0.7383528,0.66487 c 0.050355,-0.0238 0.076444,-0.0825 0.05728,-0.12898 -0.020436,-0.0496 -0.074653,-0.0801 -0.2444245,-0.13688 l -0.1592496,-0.0534 -0.035433,0.0882 c -0.019495,0.0485 -0.035251,0.0962 -0.035036,0.10615 3.228e-4,0.0147 0.034847,0.0297 0.1877491,0.0815 0.1866423,0.0632 0.1875667,0.0631 0.2291068,0.0436 z m 0.1610555,-0.59318 c 0.050008,-0.0285 0.068067,-0.0783 0.045584,-0.12602 -0.022483,-0.0477 -0.060441,-0.0688 -0.2191737,-0.12112 l -0.1310307,-0.0432 -0.033402,0.0824 c -0.018381,0.0454 -0.033237,0.0905 -0.033006,0.1006 3.235e-4,0.0148 0.031174,0.0285 0.166412,0.0737 0.1659441,0.0553 0.1661091,0.0553 0.2046144,0.0336 z m 0.4292247,1.23175 c 0.00173,-0.005 0.1195286,-0.14738 0.2618197,-0.31694 0.1422902,-0.16955 0.2776458,-0.33158 0.3007879,-0.36007 l 0.042077,-0.0518 -0.033253,-0.0119 c -0.029432,-0.0106 -0.034632,-0.008 -0.045419,0.0219 -0.011712,0.0325 -0.014056,0.0333 -0.062975,0.0157 -0.04891,-0.0177 -0.05033,-0.0195 -0.03861,-0.0521 0.01172,-0.0325 0.014056,-0.0331 0.062975,-0.0157 l 0.050792,0.0181 0.022317,-0.0621 0.022318,-0.0621 0.045139,0.0163 c 0.039089,0.014 0.044024,0.0196 0.036745,0.0419 -0.00801,0.0244 0.1304522,-0.12394 0.1424809,-0.15271 0.00314,-0.007 -0.00685,-0.0183 -0.022433,-0.024 -0.027204,-0.01 -0.027303,-0.0127 -0.00173,-0.0835 l 0.026354,-0.0734 -0.033856,-0.012 -0.033856,-0.0121 0.046657,-0.12982 0.046649,-0.1298 0.033856,0.0121 0.033864,0.0121 0.030414,-0.0846 0.030423,-0.0847 0.039502,0.0141 c 0.03762,0.0134 0.040112,0.0126 0.053698,-0.0253 0.013849,-0.0386 0.015269,-0.0391 0.059351,-0.0234 l 0.045155,0.0163 0.022317,-0.0621 0.022318,-0.0621 0.039502,0.0142 c 0.036373,0.013 0.040418,0.0116 0.051675,-0.0197 l 0.012182,-0.034 0.095938,0.0345 0.095938,0.0345 0.014204,-0.0394 0.014204,-0.0395 0.1185176,0.0426 0.1185167,0.0425 -0.014204,0.0394 -0.014204,0.0394 0.095938,0.0345 0.095938,0.0345 -0.012182,0.034 c -0.011208,0.0312 -0.0091,0.035 0.027328,0.048 l 0.03951,0.0142 -0.022318,0.0621 c -0.022086,0.0615 -0.021963,0.0622 0.011547,0.0742 0.031174,0.0111 0.032791,0.0152 0.019668,0.0517 -0.014113,0.0393 -0.01394,0.0396 0.036596,0.0578 l 0.050784,0.0182 -0.030423,0.0846 -0.030406,0.0847 0.033856,0.0121 0.033864,0.0121 -0.046657,0.1298 -0.046657,0.1298 -0.033856,-0.0121 -0.033873,-0.0121 -0.026378,0.0734 -0.026378,0.0734 -0.050792,-0.0182 -0.050792,-0.0182 -0.030422,0.0846 -0.030423,0.0847 -0.033856,-0.0121 c -0.027748,-0.01 -0.03554,-0.007 -0.043125,0.0136 -0.00685,0.019 -0.00636,0.84927 6.298e-4,1.04492 7.271e-4,0.0211 -0.014485,0.017 -0.2254975,-0.0588 l -0.2263031,-0.0814 -0.014633,-0.0849 c -0.00801,-0.0467 -0.01791,-0.076 -0.021905,-0.0652 -0.00545,0.0149 -0.016746,0.0163 -0.046781,0.006 -0.036373,-0.0131 -0.040418,-0.0116 -0.051675,0.0196 l -0.012182,0.0339 -0.1185168,-0.0426 -0.1185175,-0.0426 0.012182,-0.0339 c 0.011712,-0.0325 0.010292,-0.0346 -0.03861,-0.0521 l -0.050792,-0.0182 0.018257,-0.0508 0.018257,-0.0508 0.2093544,0.0753 0.2093536,0.0753 0.021996,-0.0717 0.021996,-0.0717 -0.2049189,-0.077 -0.2049198,-0.077 -0.016119,0.0447 -0.016119,0.0447 -0.065946,-0.02 -0.065946,-0.0199 -0.085303,0.11268 -0.085313,0.11269 -0.2398677,-0.0862 c -0.1319296,-0.0473 -0.2384762,-0.0899 -0.2367587,-0.0948 z m 1.2844575,-0.13398 0.02637,-0.0734 -0.1975312,-0.071 -0.1975288,-0.0711 -0.026362,0.0734 -0.026378,0.0734 0.1975271,0.071 0.1975287,0.0711 z m -0.058542,-0.58184 0.091275,-0.25397 -0.062091,-0.0223 c -0.061456,-0.0221 -0.061951,-0.0226 -0.049901,-0.0562 l 0.012182,-0.034 0.1580215,0.0568 0.1580232,0.0568 -0.012174,0.0338 c -0.011893,0.0333 -0.01342,0.0334 -0.06862,0.0136 l -0.056429,-0.0201 -0.091275,0.25397 -0.091275,0.25397 0.084657,0.0305 0.084648,0.0305 0.012174,-0.0338 c 0.011893,-0.0333 0.01342,-0.0334 0.06862,-0.0135 l 0.056438,0.0201 0.022317,-0.0622 0.022318,-0.0621 0.039502,0.014 0.039501,0.0141 0.030423,-0.0847 0.030423,-0.0847 0.033856,0.0121 0.033864,0.0121 0.026362,-0.0734 0.02637,-0.0734 0.050792,0.0182 0.050792,0.0182 0.046657,-0.12981 0.046649,-0.1298 -0.050784,-0.0182 -0.050792,-0.0182 0.030414,-0.0846 0.030422,-0.0847 -0.033856,-0.0121 c -0.031174,-0.0111 -0.032783,-0.0152 -0.019668,-0.0518 0.013519,-0.0376 0.012331,-0.0402 -0.025314,-0.0536 l -0.039501,-0.0141 0.022317,-0.0621 0.022318,-0.0621 -0.095937,-0.0345 -0.095938,-0.0345 0.012174,-0.0338 0.012182,-0.034 -0.1185176,-0.0425 -0.1185159,-0.0426 -0.012182,0.034 -0.012182,0.034 -0.095938,-0.0345 -0.095937,-0.0345 -0.022318,0.0621 -0.022318,0.0621 -0.039501,-0.0141 c -0.037628,-0.0134 -0.040121,-0.0126 -0.053706,0.0253 -0.01385,0.0385 -0.015269,0.0391 -0.059351,0.0234 l -0.045155,-0.0163 -0.030422,0.0846 -0.030414,0.0847 -0.039502,-0.0141 -0.039501,-0.0142 -0.046657,0.1298 -0.046657,0.12981 0.040418,0.0146 0.040418,0.0146 -0.031132,0.0748 -0.031132,0.0748 0.04934,0.0134 0.04934,0.0134 -0.030827,0.0858 -0.030827,0.0858 0.038915,0.014 0.038916,0.014 -0.017886,0.0605 -0.017885,0.0605 0.041103,0.0186 c 0.037446,0.0169 0.039997,0.0217 0.029135,0.0518 l -0.011926,0.0333 0.084647,0.0305 0.084648,0.0304 z m -0.1357732,-0.6861 c 0.018158,-0.0504 0.018463,-0.0508 0.057758,-0.0366 0.036373,0.013 0.040418,0.0116 0.051675,-0.0196 0.011505,-0.032 0.014683,-0.0329 0.057329,-0.0177 0.044074,0.0159 0.045452,0.0154 0.059343,-0.0233 0.014122,-0.0393 0.01446,-0.0394 0.064988,-0.0212 0.050528,0.0182 0.050718,0.0185 0.036596,0.0578 -0.014114,0.0393 -0.01446,0.0393 -0.064988,0.0213 -0.04891,-0.0177 -0.051263,-0.017 -0.062975,0.0157 -0.011505,0.0321 -0.014683,0.0329 -0.057321,0.0176 l -0.045147,-0.0163 -0.018257,0.0508 c -0.018158,0.0505 -0.018463,0.0506 -0.057767,0.0366 -0.039303,-0.0141 -0.039411,-0.0146 -0.021253,-0.065 z m 4.016008,3.03975 c 0.0096,-0.0376 0.009,-0.0382 -0.04388,-0.0529 l -0.05358,-0.0149 0.0111,-0.0559 c 0.01109,-0.0557 0.01104,-0.0559 -0.02976,-0.0636 -0.0273,-0.005 -0.03928,-0.0121 -0.03622,-0.0211 0.0026,-0.007 0.0057,-0.0253 0.0069,-0.0399 0.0018,-0.0224 0.0088,-0.0253 0.04659,-0.0192 0.04204,0.007 0.04491,0.005 0.05363,-0.0324 0.0092,-0.0393 0.0097,-0.0394 0.06631,-0.0276 0.05692,0.0121 0.05711,0.012 0.06342,-0.0272 0.0054,-0.0341 0.01022,-0.039 0.03522,-0.0369 0.05366,0.005 0.05589,0.01 0.03687,0.088 -0.01021,0.0421 -0.0151,0.0807 -0.01085,0.086 0.008,0.0102 0.420934,0.10725 0.433169,0.1018 0.004,-0.002 0.01191,-0.0212 0.01777,-0.0432 0.01034,-0.0389 0.01182,-0.0396 0.05147,-0.0254 0.04029,0.0146 0.04096,0.0143 0.05276,-0.0287 0.01134,-0.0413 0.01369,-0.043 0.04986,-0.0338 0.02094,0.005 0.03936,0.006 0.04109,0.002 0.0017,-0.004 0.05674,-0.23978 0.122283,-0.52351 0.10122,-0.43821 0.122123,-0.51655 0.138813,-0.52027 0.03482,-0.007 0.05899,0.009 0.05527,0.0366 -0.0018,0.0152 -0.05727,0.25759 -0.122886,0.53893 -0.06561,0.28136 -0.121579,0.52651 -0.124345,0.5448 -0.0048,0.0312 -0.0074,0.0323 -0.04544,0.0187 -0.03961,-0.0142 -0.04072,-0.0137 -0.05663,0.0307 -0.01534,0.0426 -0.0181,0.0445 -0.05008,0.033 -0.03198,-0.0114 -0.03477,-0.01 -0.05008,0.0329 -0.01407,0.0393 -0.01961,0.044 -0.04177,0.0365 -0.04891,-0.0166 -0.475673,-0.11147 -0.489002,-0.10866 -0.0081,0.002 -0.01852,0.0276 -0.0264,0.0657 -0.02514,0.12168 -0.02877,0.12728 -0.07244,0.11157 -0.03552,-0.0129 -0.03802,-0.0171 -0.02914,-0.0519 z m -3.1596964,-1.76971 c 0.011712,-0.0325 0.010292,-0.0346 -0.03861,-0.0521 -0.04891,-0.0177 -0.05033,-0.0196 -0.03861,-0.0521 0.01082,-0.0301 0.0084,-0.0353 -0.02169,-0.046 -0.032602,-0.0117 -0.033253,-0.0138 -0.015599,-0.0631 0.017572,-0.0489 0.019503,-0.0504 0.052113,-0.0386 0.03261,0.0116 0.033253,0.0138 0.015599,0.0631 l -0.018257,0.0508 0.050792,0.0182 c 0.04891,0.0177 0.050322,0.0196 0.03861,0.0521 -0.01082,0.03 -0.0084,0.0352 0.021682,0.046 0.030109,0.011 0.032478,0.0159 0.021682,0.0461 -0.010812,0.03 -0.015929,0.0325 -0.046038,0.0218 -0.030109,-0.011 -0.032478,-0.016 -0.02169,-0.0461 z m -1.5093055,-1.33266 0.012182,-0.0338 0.1185167,0.0426 0.1185151,0.0426 -0.012174,0.0338 -0.012182,0.034 -0.1185184,-0.0426 -0.1185192,-0.0426 z m 1.7156746,0.61663 0.012182,-0.034 0.1298018,0.0466 0.1298043,0.0466 -0.012182,0.034 -0.012182,0.0339 -0.1298059,-0.0466 -0.1298043,-0.0466 z m 3.5146143,0.82426 c 0.01386,-0.0386 0.01608,-0.0396 0.05468,-0.0259 0.03858,0.0139 0.03946,0.0163 0.02351,0.0499 -0.01471,0.0311 -0.0213,0.0341 -0.05468,0.0258 -0.03641,-0.01 -0.0373,-0.0114 -0.02351,-0.0498 z m 0.0995,-0.0426 c -0.0012,-0.0643 -0.01452,-0.0655 0.439855,0.04 0.234501,0.0546 0.435192,0.10258 0.445969,0.10673 0.03176,0.0124 0.0031,0.0759 -0.03192,0.0711 -0.02502,-0.004 -0.829656,-0.18879 -0.846242,-0.19492 -0.004,-4.9e-4 -0.0074,-0.0119 -0.0078,-0.0229 z m -4.7249344,-1.87556 0.018257,-0.0508 -0.050784,-0.0181 c -0.048919,-0.0177 -0.050322,-0.0196 -0.03861,-0.0521 0.010829,-0.03 0.0084,-0.0352 -0.02169,-0.0459 -0.031174,-0.0111 -0.032791,-0.0152 -0.01966,-0.0517 0.013057,-0.0364 0.016878,-0.0385 0.04806,-0.0274 0.031174,0.0111 0.032791,0.0152 0.01966,0.0516 -0.014114,0.0393 -0.013932,0.0396 0.036596,0.0578 0.04891,0.0176 0.05033,0.0196 0.03861,0.0521 -0.010829,0.0301 -0.0084,0.0352 0.02169,0.046 0.03261,0.0117 0.033253,0.0138 0.015607,0.0631 -0.01758,0.0489 -0.019503,0.0504 -0.052121,0.0386 -0.03261,-0.0116 -0.033245,-0.0139 -0.015599,-0.063 z m 1.1851715,0.42597 c 0.01758,-0.0489 0.01952,-0.0504 0.052121,-0.0386 0.030109,0.011 0.035243,0.009 0.04603,-0.0217 0.011208,-0.0312 0.01531,-0.0328 0.051675,-0.0196 0.037628,0.0135 0.04012,0.0126 0.053706,-0.0253 0.013849,-0.0386 0.015269,-0.0392 0.059351,-0.0233 0.044066,0.0158 0.044825,0.017 0.030943,0.0557 -0.013849,0.0386 -0.015269,0.0391 -0.059343,0.0233 -0.042638,-0.0154 -0.045766,-0.0146 -0.057321,0.0177 -0.011208,0.0312 -0.01531,0.0328 -0.051675,0.0196 -0.039303,-0.0141 -0.039617,-0.014 -0.057767,0.0366 -0.01758,0.0489 -0.019503,0.0503 -0.052121,0.0386 -0.03261,-0.0116 -0.033253,-0.0139 -0.015599,-0.0631 z m -0.5327009,-0.50372 0.048679,-0.13544 0.039501,0.014 0.039502,0.0141 -0.048679,0.13544 -0.048679,0.13545 -0.039502,-0.0142 -0.039501,-0.0141 z"
       style="opacity:0.22300002;fill:#ffffff;fill-opacity:1;stroke:none;stroke-width:0.01190677;stroke-miterlimit:4;stroke-dasharray:0.01190677, 0.07144065;stroke-dashoffset:0;stroke-opacity:1" />
    <text
       id="text888-6"
       y="264.96799"
       x="3.6925924"
       style="font-style:normal;font-weight:normal;font-size:1.05833328px;line-height:1.25;font-family:sans-serif;letter-spacing:0px;word-spacing:0px;fill:#000000;fill-opacity:1;stroke:none;stroke-width:0.02645833"
       xml:space="preserve"><tspan
         style="font-style:normal;font-variant:normal;font-weight:normal;font-stretch:normal;font-size:1.69333339px;font-family:sans-serif;-inkscape-font-specification:sans-serif;fill:#ffffff;stroke-width:0.02645833"
         y="264.96799"
         x="3.6925924"
         sodipodi:role="line"
         id="tspan9848">Let's go </tspan><tspan
         id="tspan1032-9"
         style="font-style:normal;font-variant:normal;font-weight:normal;font-stretch:normal;font-size:1.69333339px;font-family:sans-serif;-inkscape-font-specification:sans-serif;fill:#ffffff;stroke-width:0.02645833"
         y="266.52283"
         x="3.6925924"
         sodipodi:role="line" /><tspan
         id="tspan1260-9"
         style="font-style:normal;font-variant:normal;font-weight:bold;font-stretch:normal;font-size:1.69333339px;font-family:sans-serif;-inkscape-font-specification:'sans-serif Bold';fill:#ffffff;stroke-width:0.02645833"
         y="267.84573"
         x="3.6925924"
         sodipodi:role="line" /><tspan
         id="tspan1068-1"
         style="font-style:normal;font-variant:normal;font-weight:bold;font-stretch:normal;font-size:1.69333339px;font-family:sans-serif;-inkscape-font-specification:'sans-serif Bold';fill:#ffffff;stroke-width:0.02645833"
         y="269.16867"
         x="3.6925924"
         sodipodi:role="line" /><tspan
         id="tspan1070-0"
         style="font-style:normal;font-variant:normal;font-weight:bold;font-stretch:normal;font-size:1.69333339px;font-family:sans-serif;-inkscape-font-specification:'sans-serif Bold';fill:#ffffff;stroke-width:0.02645833"
         y="270.49158"
         x="3.6925924"
         sodipodi:role="line" /><tspan
         id="tspan1072-7"
         style="font-style:normal;font-variant:normal;font-weight:bold;font-stretch:normal;font-size:1.69333339px;font-family:sans-serif;-inkscape-font-specification:'sans-serif Bold';fill:#ffffff;stroke-width:0.02645833"
         y="271.81448"
         x="3.6925924"
         sodipodi:role="line" /><tspan
         id="tspan1074-6"
         style="font-style:normal;font-variant:normal;font-weight:bold;font-stretch:normal;font-size:1.69333339px;font-family:sans-serif;-inkscape-font-specification:'sans-serif Bold';fill:#ffffff;stroke-width:0.02645833"
         y="273.13742"
         x="3.6925924"
         sodipodi:role="line" /><tspan
         id="tspan890-9"
         style="font-style:normal;font-variant:normal;font-weight:bold;font-stretch:normal;font-size:1.69333339px;font-family:sans-serif;-inkscape-font-specification:'sans-serif Bold';fill:#ffffff;stroke-width:0.02645833"
         y="274.46033"
         x="3.6925924"
         sodipodi:role="line" /><tspan
         id="tspan892-4"
         style="font-style:normal;font-variant:normal;font-weight:bold;font-stretch:normal;font-size:1.69333339px;font-family:sans-serif;-inkscape-font-specification:'sans-serif Bold';fill:#ffffff;stroke-width:0.02645833"
         y="275.78323"
         x="3.6925924"
         sodipodi:role="line" /><tspan
         id="tspan894-7"
         style="font-style:normal;font-variant:normal;font-weight:bold;font-stretch:normal;font-size:1.69333339px;font-family:sans-serif;-inkscape-font-specification:'sans-serif Bold';fill:#ffffff;stroke-width:0.02645833"
         y="277.10617"
         x="3.6925924"
         sodipodi:role="line" /><tspan
         id="tspan898-8"
         style="font-style:normal;font-variant:normal;font-weight:bold;font-stretch:normal;font-size:1.69333339px;font-family:sans-serif;-inkscape-font-specification:'sans-serif Bold';fill:#ffffff;stroke-width:0.02645833"
         y="278.42908"
         x="3.6925924"
         sodipodi:role="line" /></text>
    <g
       id="g9763"
       transform="matrix(1.6458099,0,0,1.6458099,-60.303163,-178.3661)">
      <path
         inkscape:connector-curvature="0"
         id="path9694"
         d="m 50.220777,281.80686 c -0.0419,-0.049 -0.08602,-0.29926 -0.09794,-0.55292 l -0.02176,-0.46087 -0.475447,-0.0218 c -0.277444,-0.0109 -0.507277,-0.0593 -0.551862,-0.11318 -0.04951,-0.0599 -0.08303,-0.85143 -0.09533,-2.2621 l -0.01904,-2.16998 -0.17836,-0.0272 c -0.255734,-0.0381 -0.356722,-0.14201 -0.356722,-0.37652 0,-0.17629 -0.02775,-0.20568 -0.196207,-0.20622 -0.272492,-0.002 -0.357809,-0.0724 -0.38594,-0.32048 -0.01904,-0.16542 -0.06453,-0.21928 -0.202628,-0.23833 -0.304323,-0.0435 -0.356721,-0.13929 -0.356721,-0.6618 0,-0.4897 -3.38e-4,-0.49079 -0.199745,-0.49079 -0.32908,0 -0.370976,-0.10447 -0.370976,-0.9275 0,-0.82275 0.0419,-0.9275 0.370976,-0.9275 0.199201,0 0.199745,-10e-4 0.199745,-0.48535 0,-0.53649 0.06769,-0.65636 0.370977,-0.65636 0.171232,0 0.199744,-0.0272 0.199744,-0.19969 0,-0.25356 0.117474,-0.37109 0.370977,-0.37109 0.171232,0 0.199744,-0.0272 0.199744,-0.19969 0,-0.30307 0.11976,-0.37108 0.656376,-0.37108 0.483771,0 0.485132,-6e-4 0.485132,-0.19969 0,-0.32919 0.104361,-0.37109 0.933014,-0.37109 0.809723,0 0.887727,0.0272 0.932948,0.35694 0.02285,0.1665 0.05506,0.17956 0.485677,0.20024 0.518105,0.0218 0.626677,0.0832 0.658437,0.35802 0.0185,0.15834 0.06508,0.19697 0.271785,0.2269 0.229508,0.0326 0.25149,0.0571 0.27184,0.30307 0.01959,0.23887 0.04298,0.2677 0.217591,0.2677 0.298773,0 0.366678,0.12134 0.366678,0.65637 0,0.48372 5.66e-4,0.48535 0.199745,0.48535 0.329134,0 0.370977,0.10447 0.370977,0.92749 0,0.82276 -0.0419,0.9275 -0.370977,0.9275 -0.199418,0 -0.199745,8.2e-4 -0.199745,0.49079 0,0.52235 -0.05224,0.61975 -0.356721,0.66181 -0.142884,0.0218 -0.185434,0.0745 -0.214054,0.27423 -0.03156,0.222 -0.06208,0.25247 -0.271622,0.2726 -0.239029,0.0218 -0.254319,0.0381 -0.32908,0.38306 -0.03374,0.15344 -0.0882,0.19642 -0.273472,0.21384 l -0.231629,0.0218 -0.01904,2.16998 c -0.01252,1.41067 -0.04571,2.20219 -0.09533,2.2621 -0.04462,0.0544 -0.274397,0.10066 -0.551857,0.11318 l -0.475446,0.0218 -0.02177,0.46087 c -0.02448,0.52561 -0.09315,0.64482 -0.370759,0.64482 -0.108116,0 -0.230868,-0.0435 -0.272873,-0.092 z"
         style="fill:#949494;stroke-width:0.07134467" />
      <path
         inkscape:connector-curvature="0"
         id="path9692"
         d="m 50.243374,281.73825 c -0.01741,-0.049 -0.04026,-0.29817 -0.05115,-0.55293 l -0.01959,-0.46358 -0.535081,-0.0381 -0.535082,-0.0381 -0.03591,-2.24735 -0.03591,-2.24736 -0.249694,-0.0381 c -0.221944,-0.0326 -0.253666,-0.0631 -0.285388,-0.28512 -0.03156,-0.222 -0.06344,-0.25356 -0.285388,-0.28566 -0.221944,-0.0326 -0.253666,-0.0637 -0.285388,-0.28512 -0.03156,-0.22199 -0.06344,-0.25355 -0.285387,-0.28566 l -0.249694,-0.0381 -0.03591,-0.53487 c -0.03537,-0.53214 -0.037,-0.53541 -0.249476,-0.55935 -0.117583,-0.0109 -0.237506,-0.0615 -0.266453,-0.10719 -0.02884,-0.0435 -0.05332,-0.39176 -0.05387,-0.76959 -0.0012,-0.73042 0.03319,-0.81345 0.355633,-0.85807 0.166608,-0.0218 0.179775,-0.055 0.200016,-0.48589 0.02448,-0.518 0.08336,-0.62666 0.358136,-0.65844 0.15812,-0.0163 0.197133,-0.0653 0.226624,-0.27151 0.03156,-0.222 0.06344,-0.25356 0.285387,-0.28566 0.206709,-0.0272 0.253503,-0.0686 0.271785,-0.22689 0.03156,-0.27478 0.140327,-0.33409 0.658438,-0.35803 0.430612,-0.0218 0.46266,-0.0326 0.485676,-0.20023 0.04462,-0.32266 0.127323,-0.35694 0.867138,-0.35694 0.739816,0 0.822494,0.0326 0.867133,0.35694 0.02285,0.16649 0.05506,0.17955 0.485676,0.20023 0.518106,0.0218 0.626678,0.0833 0.658438,0.35803 0.0185,0.15833 0.06508,0.19697 0.271785,0.22689 0.229507,0.0326 0.25149,0.0571 0.271839,0.30307 0.02013,0.2405 0.04244,0.26771 0.223142,0.26771 0.282231,0 0.350463,0.11698 0.375166,0.64483 0.02013,0.43093 0.03319,0.46249 0.200016,0.48589 0.325544,0.0435 0.356722,0.1246 0.356722,0.91019 v 0.73902 l -0.196208,0.0435 c -0.107898,0.0218 -0.234894,0.0549 -0.282177,0.0691 -0.05441,0.0163 -0.09375,0.21874 -0.107028,0.54695 l -0.02122,0.52071 -0.249694,0.0381 c -0.221944,0.0326 -0.253666,0.0637 -0.285388,0.28566 -0.03156,0.222 -0.06344,0.25356 -0.285388,0.28512 -0.221944,0.0326 -0.253666,0.0637 -0.285387,0.28566 -0.03156,0.22199 -0.06339,0.25355 -0.285388,0.28511 l -0.249694,0.0381 -0.03591,2.24735 -0.03591,2.24736 -0.535082,0.0381 -0.535082,0.0381 -0.0185,0.39231 c -0.02993,0.63906 -0.06203,0.71344 -0.306173,0.71344 -0.118182,0 -0.229181,-0.0381 -0.246647,-0.0892 z"
         style="fill:#7e7e7e;stroke-width:0.07134467" />
      <path
         inkscape:connector-curvature="0"
         id="path9690"
         d="m 50.282099,281.68944 c -0.04081,-0.0762 -0.07384,-0.33299 -0.07384,-0.57077 V 280.6861 H 49.71758 c -0.322061,0 -0.517833,-0.0326 -0.569692,-0.0952 -0.05278,-0.0637 -0.08526,-0.80943 -0.09794,-2.2652 l -0.01904,-2.16998 -0.17836,-0.0218 c -0.21449,-0.0272 -0.356722,-0.19425 -0.356722,-0.41897 0,-0.13276 -0.03863,-0.16486 -0.199744,-0.16486 -0.253503,0 -0.370977,-0.11753 -0.370977,-0.37109 0,-0.17139 -0.02829,-0.19969 -0.199744,-0.19969 -0.303289,0 -0.370977,-0.1197 -0.370977,-0.65636 v -0.48535 h -0.211497 c -0.290394,0 -0.359224,-0.16378 -0.359224,-0.85611 0,-0.69211 0.06883,-0.85616 0.359224,-0.85616 h 0.211497 l 0.0011,-0.44618 c 0.0013,-0.52833 0.03319,-0.59053 0.337786,-0.65663 0.192453,-0.0435 0.231847,-0.0833 0.231847,-0.24431 0,-0.24812 0.119106,-0.36565 0.370977,-0.36565 0.163941,0 0.199744,-0.0326 0.199744,-0.17302 0,-0.28784 0.184454,-0.41081 0.536279,-0.35803 0.401773,0.0604 0.604956,-0.0109 0.606338,-0.20513 0.0022,-0.31559 0.07215,-0.34007 0.896494,-0.31885 l 0.779013,0.0218 0.02231,0.23179 c 0.02394,0.24975 0.03101,0.25247 0.592045,0.23343 0.373915,-0.0109 0.562782,0.12025 0.562782,0.39611 0,0.14202 0.03591,0.17303 0.199744,0.17303 0.253122,0 0.370977,0.11753 0.370977,0.36945 0,0.15834 0.03972,0.20677 0.196208,0.24159 0.107898,0.0218 0.236309,0.0555 0.285388,0.0702 0.06029,0.0163 0.08918,0.1899 0.08918,0.52943 v 0.50167 h 0.199744 c 0.324727,0 0.370977,0.10828 0.370977,0.86791 0,0.61578 -0.01578,0.70523 -0.137987,0.77052 -0.0759,0.0381 -0.204315,0.074 -0.285388,0.074 -0.134505,0 -0.1474,0.0435 -0.1474,0.48535 0,0.5365 -0.06769,0.65637 -0.370977,0.65637 -0.171233,0 -0.199745,0.0272 -0.199745,0.19969 0,0.25356 -0.117474,0.37108 -0.370977,0.37108 -0.172484,0 -0.199744,0.0272 -0.199744,0.20513 0,0.23452 -0.100987,0.34116 -0.356721,0.37653 l -0.17836,0.0272 -0.01904,2.16998 c -0.01252,1.45578 -0.04516,2.20132 -0.09794,2.2652 -0.05169,0.0626 -0.247626,0.0952 -0.569693,0.0952 h -0.490682 v 0.43257 c 0,0.49351 -0.08673,0.70876 -0.285388,0.70876 -0.07574,0 -0.170906,-0.062 -0.211551,-0.1382 z m 0.924972,-3.57194 v -1.85494 h -0.713448 -0.713448 v 1.85494 1.85494 h 0.713448 0.713448 z m -1.036581,0.30906 c -0.156814,-0.15671 -0.125799,-1.13437 0.03918,-1.23873 0.173409,-0.10991 0.417336,-0.0778 0.569192,0.074 0.206546,0.20676 0.209974,1.10052 0.0047,1.21038 -0.205131,0.10991 -0.478222,0.0898 -0.613206,-0.0435 z"
         style="fill:#727272;stroke-width:0.07134467" />
      <path
         inkscape:connector-curvature="0"
         id="path9688"
         d="m 50.347546,281.78333 c -0.02775,-0.0272 -0.0506,-0.26934 -0.0506,-0.53704 0,-0.55217 0.01088,-0.54303 -0.713448,-0.57736 l -0.392415,-0.0163 -0.01904,-2.16998 c -0.01252,-1.45578 -0.04516,-2.20132 -0.09794,-2.2652 -0.04353,-0.0544 -0.169491,-0.0952 -0.280001,-0.0952 -0.180754,0 -0.203226,-0.0272 -0.223141,-0.2677 -0.02013,-0.24594 -0.04244,-0.27043 -0.271839,-0.30308 -0.221944,-0.0326 -0.253666,-0.0637 -0.285388,-0.28565 -0.03265,-0.22908 -0.05773,-0.25139 -0.300296,-0.27152 l -0.264603,-0.0218 -0.02068,-0.5488 -0.02068,-0.54879 -0.249694,-0.0381 -0.249694,-0.0381 v -0.74913 -0.74914 l 0.249694,-0.0381 0.249694,-0.0381 0.03591,-0.53487 0.03591,-0.53486 0.249694,-0.0381 c 0.228691,-0.0326 0.251544,-0.0577 0.271622,-0.29926 0.02068,-0.24757 0.03809,-0.26499 0.285388,-0.28512 0.24126,-0.0218 0.266507,-0.0435 0.299154,-0.27151 l 0.03591,-0.24975 0.535082,-0.0381 0.535081,-0.0381 0.03591,-0.24974 0.03591,-0.24975 h 0.749119 0.74912 l 0.03591,0.24975 0.03591,0.24974 0.535082,0.0381 0.535082,0.0381 0.03591,0.24975 c 0.03265,0.22853 0.05789,0.25138 0.299154,0.27151 0.247572,0.0218 0.26482,0.0381 0.285388,0.28512 0.02013,0.24104 0.04299,0.26661 0.271622,0.29926 l 0.249693,0.0381 0.02177,0.46086 c 0.02448,0.518 0.08336,0.62666 0.358136,0.65844 l 0.190984,0.0218 v 0.74914 0.74913 l -0.249694,0.0381 -0.249694,0.0381 -0.02068,0.55293 c -0.02068,0.55097 -0.02177,0.55293 -0.217591,0.55293 -0.249422,0 -0.367985,0.11807 -0.367985,0.36673 0,0.17411 -0.02884,0.19806 -0.267541,0.21764 -0.253013,0.0218 -0.268738,0.0381 -0.289686,0.28947 -0.02013,0.2405 -0.04244,0.26771 -0.223141,0.26771 -0.110564,0 -0.236526,0.0435 -0.280001,0.0952 -0.05278,0.0637 -0.08526,0.80942 -0.09794,2.2652 l -0.01904,2.16998 -0.475446,0.0218 c -0.267596,0.0109 -0.507659,0.0599 -0.549126,0.10991 -0.04026,0.049 -0.08341,0.296 -0.09533,0.54978 -0.01904,0.40101 -0.04026,0.46358 -0.167261,0.48208 -0.08009,0.0109 -0.168403,-0.002 -0.196208,-0.0272 z m 0.933983,-1.68202 c 0.111108,-0.111 0.121827,-3.56596 0.01197,-3.77169 -0.0654,-0.12243 -0.154909,-0.13821 -0.782278,-0.13821 -0.627385,0 -0.716875,0.0163 -0.782283,0.13821 -0.110075,0.20567 -0.0993,3.66063 0.01197,3.77169 0.05468,0.055 0.332943,0.0854 0.770525,0.0854 0.437577,0 0.715826,-0.0326 0.77052,-0.0854 z m -1.026139,-1.72332 c -0.02068,-0.0544 -0.02721,-0.30198 -0.01578,-0.55293 l 0.02177,-0.45597 h 0.249694 0.249694 l 0.02068,0.55293 0.02068,0.55293 h -0.254971 c -0.148707,0 -0.270425,-0.0381 -0.292026,-0.0969 z"
         style="fill:#ffffff;stroke-width:0.07134467" />
      <path
         inkscape:connector-curvature="0"
         id="path9682"
         d="m 50.399981,281.71001 c -0.02721,-0.0272 -0.04897,-0.25029 -0.04897,-0.49569 0,-0.58889 -0.08358,-0.671 -0.682874,-0.671 h -0.458634 v -2.1709 c 0,-2.35863 -0.006,-2.39514 -0.397475,-2.39514 -0.150448,0 -0.173246,-0.0326 -0.173246,-0.24975 v -0.24975 h 1.859265 1.85927 l -0.02231,0.26771 c -0.02013,0.24213 -0.04353,0.26934 -0.246756,0.28947 -0.160676,0.0163 -0.236526,0.0664 -0.266561,0.17847 -0.02285,0.086 -0.04244,1.09563 -0.04299,2.24338 l -9.74e-4,2.08684 -0.445901,10e-4 c -0.245233,6e-4 -0.494056,0.0326 -0.552924,0.0686 -0.07264,0.0435 -0.118453,0.23288 -0.142666,0.58193 -0.03265,0.47174 -0.110347,0.64113 -0.236309,0.51527 z m 0.935506,-1.60911 c 0.12199,-0.12188 0.12199,-3.84481 0,-3.9668 -0.05583,-0.056 -0.348777,-0.0854 -0.841864,-0.0854 -0.493076,0 -0.786049,0.0272 -0.84187,0.0854 -0.06241,0.0626 -0.08559,0.61093 -0.08559,2.02143 0,1.06473 0.02122,1.95724 0.04734,1.98341 0.08766,0.0876 1.630166,0.0544 1.721784,-0.0381 z m -1.02652,-1.86707 c -0.02068,-0.0544 -0.02775,-0.27042 -0.01578,-0.48154 0.02013,-0.35585 0.03482,-0.38414 0.200234,-0.38414 0.170525,0 0.179285,0.0218 0.199472,0.48154 0.02068,0.47555 0.0185,0.48154 -0.162745,0.48154 -0.10115,0 -0.200723,-0.0435 -0.221345,-0.0979 z m 2.34283,-2.81122 c -0.187665,-0.0327 -0.222924,-0.30361 -0.05692,-0.44127 0.17292,-0.14365 0.359769,-0.0604 0.363523,0.16214 0.004,0.23397 -0.08559,0.31559 -0.306554,0.27968 z m -4.583894,-0.22526 c 0,-0.148 0.04244,-0.22254 0.146095,-0.25573 0.187828,-0.0599 0.353293,0.0789 0.353293,0.29545 0,0.14637 -0.03428,0.16976 -0.249694,0.16976 -0.228582,0 -0.249694,-0.0163 -0.249694,-0.20894 z m -0.570759,-0.85867 c 0,-0.40264 0.02394,-0.51527 0.116712,-0.55097 0.242294,-0.093 0.347036,0.0751 0.347036,0.55647 v 0.45597 l -0.231847,0.0218 -0.231847,0.0218 z m 5.508251,-0.0163 0.02122,-0.51473 0.231847,-0.049 0.231847,-0.049 v 0.56174 0.56174 h -0.25285 -0.252849 z m -6.079005,-1.34043 v -0.71344 h 0.249694 0.249694 v 0.71344 0.71345 H 47.176084 46.92639 Z m 6.682759,0.41027 c 0.01687,-0.16705 -0.01415,-0.51202 -0.06889,-0.76693 -0.08526,-0.39938 -0.120739,-0.46359 -0.255189,-0.46359 -0.220366,0 -0.292081,-0.15235 -0.293332,-0.62426 l -0.0011,-0.41026 h 0.249694 0.249693 v 0.53432 0.53432 l 0.285388,0.0435 0.285388,0.0435 v 0.70435 0.7043 h -0.240934 c -0.240607,0 -0.240879,-3.8e-4 -0.210735,-0.30307 z m -6.112005,-1.73007 v -0.53486 h 0.249694 0.249693 v 0.3972 c 0,0.48535 -0.09038,0.67312 -0.323584,0.67312 -0.171287,0 -0.175858,-0.0163 -0.175858,-0.53486 z m 0.570759,-0.85616 c 0,-0.24268 0.0076,-0.24975 0.278695,-0.24975 0.253122,0 0.275104,0.0163 0.23941,0.16051 -0.05887,0.2405 -0.160024,0.33899 -0.34845,0.33899 -0.146313,0 -0.169655,-0.0326 -0.169655,-0.24975 z m 4.473118,0.19642 c -0.01632,-0.0272 -0.05115,-0.14201 -0.07694,-0.24975 -0.04462,-0.18554 -0.03374,-0.19642 0.204151,-0.19642 0.239356,0 0.251055,0.0109 0.251055,0.24975 0,0.2171 -0.02285,0.24975 -0.174171,0.24975 -0.09576,0 -0.187665,-0.0218 -0.204152,-0.0544 z m -3.498164,-0.52561 c -0.111217,-0.0272 -0.24768,-0.0381 -0.303234,-0.0163 -0.07558,0.0272 -0.100988,-0.0272 -0.100988,-0.21874 v -0.25736 h 0.539598 0.539598 l -0.02231,0.22907 c -0.0185,0.19044 -0.05871,0.23669 -0.236418,0.2726 -0.117691,0.0218 -0.30503,0.0163 -0.416247,-0.0109 z m 2.396082,-0.0653 c -0.107244,-0.0435 -0.160513,-0.12461 -0.160513,-0.2454 0,-0.17738 0.01034,-0.18065 0.535082,-0.18065 h 0.535081 v 0.24975 0.24975 l -0.374568,-0.005 c -0.206001,-0.002 -0.446826,-0.0326 -0.535082,-0.0691 z m -1.611203,-0.47338 c -0.02612,-0.0272 -0.04734,-0.15453 -0.04734,-0.28566 v -0.23778 h 0.713448 0.713448 v 0.24213 c 0,0.15507 -0.04081,0.25736 -0.112849,0.28511 -0.153114,0.0588 -1.207014,0.0555 -1.26648,-0.004 z"
         style="fill:#313131;stroke-width:0.07134467" />
    </g>
  </g>
</svg>
