<?xml version="1.0" encoding="UTF-8" standalone="no"?>
<!-- Created with Inkscape (http://www.inkscape.org/) -->

<svg
   xmlns:dc="http://purl.org/dc/elements/1.1/"
   xmlns:cc="http://creativecommons.org/ns#"
   xmlns:rdf="http://www.w3.org/1999/02/22-rdf-syntax-ns#"
   xmlns:svg="http://www.w3.org/2000/svg"
   xmlns="http://www.w3.org/2000/svg"
   xmlns:sodipodi="http://sodipodi.sourceforge.net/DTD/sodipodi-0.dtd"
   xmlns:inkscape="http://www.inkscape.org/namespaces/inkscape"
   width="7.8000002cm"
   height="7.8000002cm"
   viewBox="0 0 7.7999997 7.8000002"
   version="1.1"
   id="svg8"
   inkscape:version="0.92.2 (30a58d1, 2017-08-07)"
   sodipodi:docname="we2.svg">
  <defs
     id="defs2" />
  <sodipodi:namedview
     id="base"
     pagecolor="#ffffff"
     bordercolor="#666666"
     borderopacity="1.0"
     inkscape:pageopacity="0"
     inkscape:pageshadow="2"
     inkscape:zoom="1.4142136"
     inkscape:cx="231.37312"
     inkscape:cy="11.002161"
     inkscape:document-units="cm"
     inkscape:current-layer="g1752"
     showgrid="true"
     scale-x="1"
     showguides="true"
     borderlayer="false"
     showborder="true"
     inkscape:showpageshadow="true"
     inkscape:window-width="3066"
     inkscape:window-height="1689"
     inkscape:window-x="134"
     inkscape:window-y="55"
     inkscape:window-maximized="1"
     units="cm" />
  <metadata
     id="metadata5">
    <rdf:RDF>
      <cc:Work
         rdf:about="">
        <dc:format>image/svg+xml</dc:format>
        <dc:type
           rdf:resource="http://purl.org/dc/dcmitype/StillImage" />
        <dc:title></dc:title>
      </cc:Work>
    </rdf:RDF>
  </metadata>
  <g
     inkscape:label="Ebene 1"
     inkscape:groupmode="layer"
     id="layer1"
     transform="translate(0,-282.18)">
    <g
       id="g1752"
       transform="translate(15.998472,-16.069027)">
      <path
         style="fill:#000000;fill-opacity:1;stroke-width:0.01279121"
         d="m -9.370169,304.48537 v -0.10232 h 0.1023303 0.1023293 v 0.10232 0.10234 H -9.2678387 -9.370169 Z m -4.96299,-0.20465 v -0.10234 h 0.102329 0.10233 v 0.10234 0.10233 h -0.10233 -0.102329 z m 3.095473,-0.21106 v -0.10873 h 0.10233 0.102329 v 0.10873 0.10872 h -0.102329 -0.10233 z m -1.445407,-0.21745 v -0.10873 h 0.102329 0.102331 v 0.10873 0.10872 h -0.102331 -0.102329 z m -2.072176,-0.21105 v -0.10233 h -0.204659 -0.20466 v -0.10234 -0.10232 h -0.102329 -0.10233 v -0.10873 -0.10872 h -0.10233 -0.102329 v -0.20466 -0.20466 h -0.108725 -0.108726 v -0.51805 -0.51804 h 0.108726 0.108725 v -0.20466 -0.20466 h 0.102329 0.10233 v -0.10233 -0.10233 h 0.10233 0.102329 v -0.10233 -0.10233 h 0.20466 0.204659 v -0.10872 -0.10873 h 0.518044 0.518044 v 0.10873 0.10872 h 0.211055 0.211055 v -0.10872 -0.10873 h 0.10233 0.10233 v -0.10232 -0.10234 h 0.204658 0.20466 v -0.10233 -0.10232 h 0.518044 0.518044 v 0.10232 0.10233 h 0.20466 0.204659 v 0.10234 0.10232 h 0.10233 0.102329 v 0.10873 0.10872 h 0.211056 0.211055 v -0.10872 -0.10873 h 0.518044 0.5180443 v 0.10873 0.10872 h 0.2046587 0.2046596 v 0.10233 0.10233 h 0.1023294 0.1023303 v 0.10233 0.10233 h 0.1023293 0.1023294 v 0.20466 0.20466 h 0.1087258 0.1087249 v 0.51804 0.51805 H -8.6474652 -8.756191 v 0.20466 0.20466 h -0.1023294 -0.1023293 v 0.10872 0.10873 H -9.06318 -9.1655094 v 0.10232 0.10234 H -9.370169 -9.5748277 v 0.10233 0.10232 h -0.5180443 -0.518044 v -0.10232 -0.10233 h -0.211055 -0.211056 v -0.10234 -0.10232 h -0.102329 -0.10233 v -0.10873 -0.10872 h -0.204659 -0.20466 v 0.10872 0.10873 h -0.518044 -0.518044 v -0.10873 -0.10872 h -0.20466 -0.204658 v 0.10872 0.10873 h -0.10233 -0.10233 v 0.10232 0.10234 h -0.211055 -0.211055 v 0.10233 0.10232 h -0.518044 -0.518044 z m 0.204659,-0.20467 v -0.10232 h 0.108726 0.108725 v 0.10232 0.10234 h 0.306989 0.306989 v -0.10234 -0.10232 h 0.211055 0.211055 v -0.10873 -0.10872 h 0.10233 0.10233 v -0.10233 -0.10233 h 0.204658 0.20466 v 0.10233 0.10233 h 0.518044 0.518044 v -0.10233 -0.10233 h 0.20466 0.204659 v 0.10233 0.10233 h 0.10233 0.102329 v 0.10872 0.10873 h 0.211056 0.211055 v 0.10232 0.10234 h 0.518044 0.5180443 v -0.10234 -0.10232 h 0.2046587 0.2046596 v -0.10873 -0.10872 h 0.1023294 0.1023303 v -0.20466 -0.20466 h 0.1023293 0.1023294 v -0.41572 -0.41571 h -0.1023294 -0.1023293 v -0.30699 -0.30699 H -9.06318 -9.1655094 v -0.10233 -0.10233 H -9.370169 -9.5748277 v -0.10233 -0.10233 h -0.5180443 -0.518044 v 0.10233 0.10233 h -0.102331 -0.102329 v 0.10233 0.10233 h 0.102329 0.102331 v 0.30699 0.30699 h 0.102329 0.102329 v 0.10872 0.10874 h -0.102329 -0.102329 v 0.10232 0.10233 h -0.102331 -0.102329 v -0.41572 -0.41571 h -0.108725 -0.108726 v 0.20466 0.20466 h -0.102329 -0.10233 v 0.10872 0.10874 h -0.306989 -0.306989 v -0.10874 -0.10872 h 0.10233 0.102329 v -0.10233 -0.10233 h 0.10233 0.10233 v -0.10233 -0.10233 h -0.20466 -0.204659 v 0.20466 0.20466 h -0.10233 -0.102329 v -0.10233 -0.10233 h -0.108726 -0.108726 v 0.10233 0.10233 h -0.102329 -0.102329 v 0.10872 0.10874 h -0.306989 -0.306989 v -0.10874 -0.10872 h 0.102329 0.102329 v -0.10233 -0.10233 h 0.102331 0.102329 v -0.10233 -0.10233 h -0.20466 -0.204658 v 0.20466 0.20466 h -0.10233 -0.10233 v -0.20466 -0.20466 h -0.108725 -0.108726 v 0.41571 0.41572 h -0.102329 -0.10233 v -0.10233 -0.10232 h -0.10233 -0.102329 v -0.10874 -0.10872 h 0.102329 0.10233 v -0.30699 -0.30699 h 0.10233 0.102329 v -0.10233 -0.10233 h -0.102329 -0.10233 v -0.10233 -0.10233 h -0.518044 -0.518044 v 0.10233 0.10233 h -0.204659 -0.20466 v 0.10233 0.10233 h -0.102329 -0.10233 v 0.30699 0.30699 h -0.10233 -0.102329 v 0.41571 0.41572 h 0.102329 0.10233 v 0.20466 0.20466 h 0.10233 0.102329 v 0.10872 0.10873 h 0.20466 0.204659 v 0.10232 0.10234 h 0.10233 0.102329 z m -0.204659,-0.41571 v -0.31338 h -0.10233 -0.102329 v -0.10233 -0.10233 h 0.102329 0.10233 v 0.10233 0.10233 h 0.518044 0.518044 v -0.10233 -0.10233 h 0.10233 0.102329 v -0.10233 -0.10233 h 0.108726 0.108725 v 0.20466 0.20466 h 0.10233 0.10233 v 0.10233 0.10233 h -0.10233 -0.10233 v -0.10233 -0.10233 h -0.211055 -0.211055 v 0.10233 0.10233 h -0.204659 -0.20466 v 0.21105 0.21106 h -0.10233 -0.102329 v -0.21106 -0.21105 h -0.108725 -0.108726 v 0.21105 0.21106 h -0.102329 -0.10233 z m 4.144353,-0.007 v -0.10232 h -0.102331 -0.102329 v -0.10234 -0.10233 h -0.108725 -0.108726 v 0.10233 0.10234 h -0.102329 -0.10233 v -0.10234 -0.10233 h 0.10233 0.102329 v -0.20466 -0.20465 h 0.108726 0.108725 v 0.20465 0.20466 h 0.102329 0.102331 v 0.10233 0.10234 h 0.518044 0.5180443 v -0.10234 -0.10233 h 0.1023293 0.1023294 v 0.10233 0.10234 h -0.1023294 -0.1023293 v 0.10232 0.10233 h -0.5180443 -0.518044 z m -2.072177,-0.40931 v -0.10234 h 0.518044 0.518044 V 302.4 302.29767 h 0.10233 0.10233 v 0.10233 0.10232 h -0.10233 -0.10233 v 0.10234 0.10232 h -0.518044 -0.518044 z m -2.276835,-0.62038 v -0.10872 h 0.204659 0.204659 v 0.10872 0.10873 h -0.204659 -0.204659 z m 5.1804406,0 v -0.10872 h 0.2046597 0.2046587 v 0.10872 0.10873 h -0.2046587 -0.2046597 z m -1.2535396,-0.92736 v -0.20466 h -0.102329 -0.10233 v -0.10873 -0.10872 h -0.204659 -0.20466 v -0.10233 -0.10233 h -0.518044 -0.518044 v 0.10233 0.10233 h -0.20466 -0.204658 v 0.10872 0.10873 h -0.10233 -0.10233 v 0.20466 0.20466 h 1.132022 1.132022 z m -4.131561,-0.52444 v -0.10233 h 0.10233 0.10233 v 0.10233 0.10233 h -0.10233 -0.10233 z m 5.5897603,-0.40932 v -0.10232 h 0.1023293 0.1023294 v 0.10232 0.10233 H -9.4724984 -9.5748277 Z M -13.92384,299.9249 v -0.10873 h 0.102329 0.10233 v 0.10873 0.10872 h -0.10233 -0.102329 z m 4.7583306,-0.007 v -0.10233 h 0.1023294 0.1023303 v 0.10233 0.10233 H -9.06318 -9.1655094 Z m -2.4814956,-0.40932 v -0.10233 h 0.10233 0.10233 v 0.10233 0.10233 h -0.10233 -0.10233 z"
         id="path1807"
         inkscape:connector-curvature="0" />
    </g>
  </g>
</svg>
